  0
SECTION
  2
HEADER
  9
$ACADVER
  1
AC1006
  9
$EXTMIN
 10
   1636122.48447
 20
   5309654.51565
  9
$EXTMAX
 10
   1667551.58906
 20
   5346523.04826
  9
$HANDLING
 70
1
  0
ENDSEC
  0
SECTION
  2
TABLES
  0
TABLE
  2
LAYER
 70
2
  0
LAYER
  2
default
 62
7
  6
CONTINUOUS
 70
0
  0
ENDTAB
  0
ENDSEC
  0
SECTION
  2
BLOCKS
  0
ENDSEC
  0
SECTION
  2
ENTITIES
  0
3DFACE
  5
3188E
  8
default
 10
   1657743.48663
 20
   5346245.92364
 30
    -13397.96756
 11
   1656632.72076
 21
   5344847.93067
 31
    -11785.63028
 12
   1659111.56780
 22
   5345548.24319
 32
    -12062.97959
 13
   1659111.56780
 23
   5345548.24319
 33
    -12062.97959
 62
5
 70
0
  0
3DFACE
  5
3188F
  8
default
 10
   1656719.31899
 20
   5345918.56069
 30
    -13164.06707
 11
   1656632.72076
 21
   5344847.93067
 31
    -11785.63028
 12
   1657743.48663
 22
   5346245.92364
 32
    -13397.96756
 13
   1657743.48663
 23
   5346245.92364
 33
    -13397.96756
 62
5
 70
0
  0
3DFACE
  5
31890
  8
default
 10
   1655692.97635
 20
   5345593.64112
 30
    -12926.24184
 11
   1656632.72076
 21
   5344847.93067
 31
    -11785.63028
 12
   1656719.31899
 22
   5345918.56069
 32
    -13164.06707
 13
   1656719.31899
 23
   5345918.56069
 33
    -13164.06707
 62
5
 70
0
  0
3DFACE
  5
31891
  8
default
 10
   1654668.47126
 20
   5345266.66210
 30
    -12691.75542
 11
   1656632.72076
 21
   5344847.93067
 31
    -11785.63028
 12
   1655692.97635
 22
   5345593.64112
 32
    -12926.24184
 13
   1655692.97635
 23
   5345593.64112
 33
    -12926.24184
 62
5
 70
0
  0
3DFACE
  5
31892
  8
default
 10
   1654668.47126
 20
   5345266.66210
 30
    -12691.75542
 11
   1653644.99296
 21
   5344354.91881
 31
    -11685.51056
 12
   1656632.72076
 22
   5344847.93067
 32
    -11785.63028
 13
   1656632.72076
 23
   5344847.93067
 33
    -11785.63028
 62
5
 70
0
  0
3DFACE
  5
31893
  8
default
 10
   1653642.28067
 20
   5344941.58650
 30
    -12454.27456
 11
   1653644.99296
 21
   5344354.91881
 31
    -11685.51056
 12
   1654668.47126
 22
   5345266.66210
 32
    -12691.75542
 13
   1654668.47126
 23
   5345266.66210
 33
    -12691.75542
 62
5
 70
0
  0
3DFACE
  5
31894
  8
default
 10
   1653642.28067
 20
   5344941.58650
 30
    -12454.27456
 11
   1653069.81540
 21
   5344491.65522
 31
    -11920.07501
 12
   1653644.99296
 22
   5344354.91881
 32
    -11685.51056
 13
   1653644.99296
 23
   5344354.91881
 33
    -11685.51056
 62
5
 70
0
  0
3DFACE
  5
31895
  8
default
 10
   1653130.03148
 20
   5344778.09364
 30
    -12337.03938
 11
   1653069.81540
 21
   5344491.65522
 31
    -11920.07501
 12
   1653642.28067
 22
   5344941.58650
 32
    -12454.27456
 13
   1653642.28067
 23
   5344941.58650
 33
    -12454.27456
 62
5
 70
0
  0
3DFACE
  5
31896
  8
default
 10
   1652614.45105
 20
   5344618.36170
 30
    -12213.88112
 11
   1653069.81540
 21
   5344491.65522
 31
    -11920.07501
 12
   1653130.03148
 22
   5344778.09364
 32
    -12337.03938
 13
   1653130.03148
 23
   5344778.09364
 33
    -12337.03938
 62
5
 70
0
  0
3DFACE
  5
31897
  8
default
 10
   1652577.07924
 20
   5344434.90656
 30
    -11938.32866
 11
   1653069.81540
 21
   5344491.65522
 31
    -11920.07501
 12
   1652614.45105
 22
   5344618.36170
 32
    -12213.88112
 13
   1652614.45105
 23
   5344618.36170
 33
    -12213.88112
 62
5
 70
0
  0
3DFACE
  5
31898
  8
default
 10
   1652661.50423
 20
   5344257.29286
 30
    -11699.50527
 11
   1653069.81540
 21
   5344491.65522
 31
    -11920.07501
 12
   1652577.07924
 22
   5344434.90656
 32
    -11938.32866
 13
   1652577.07924
 23
   5344434.90656
 33
    -11938.32866
 62
5
 70
0
  0
3DFACE
  5
31899
  8
default
 10
   1652852.58451
 20
   5343879.26719
 30
    -11272.25177
 11
   1653069.81540
 21
   5344491.65522
 31
    -11920.07501
 12
   1652661.50423
 22
   5344257.29286
 32
    -11699.50527
 13
   1652661.50423
 23
   5344257.29286
 33
    -11699.50527
 62
5
 70
0
  0
3DFACE
  5
3189A
  8
default
 10
   1653644.99296
 20
   5344354.91881
 30
    -11685.51056
 11
   1653069.81540
 21
   5344491.65522
 31
    -11920.07501
 12
   1652852.58451
 22
   5343879.26719
 32
    -11272.25177
 13
   1652852.58451
 23
   5343879.26719
 33
    -11272.25177
 62
5
 70
0
  0
3DFACE
  5
3189B
  8
default
 10
   1654203.76917
 20
   5343342.83324
 30
    -10455.38164
 11
   1653644.99296
 21
   5344354.91881
 31
    -11685.51056
 12
   1652852.58451
 22
   5343879.26719
 32
    -11272.25177
 13
   1652852.58451
 23
   5343879.26719
 33
    -11272.25177
 62
5
 70
0
  0
3DFACE
  5
3189C
  8
default
 10
   1656632.72076
 20
   5344847.93067
 30
    -11785.63028
 11
   1653644.99296
 21
   5344354.91881
 31
    -11685.51056
 12
   1654203.76917
 22
   5343342.83324
 32
    -10455.38164
 13
   1654203.76917
 23
   5343342.83324
 33
    -10455.38164
 62
5
 70
0
  0
3DFACE
  5
3189D
  8
default
 10
   1656298.46901
 20
   5343707.29728
 30
    -10505.89935
 11
   1656632.72076
 21
   5344847.93067
 31
    -11785.63028
 12
   1654203.76917
 22
   5343342.83324
 32
    -10455.38164
 13
   1654203.76917
 23
   5343342.83324
 33
    -10455.38164
 62
5
 70
0
  0
3DFACE
  5
3189E
  8
default
 10
   1658312.96230
 20
   5344323.68132
 30
    -10731.66665
 11
   1656632.72076
 21
   5344847.93067
 31
    -11785.63028
 12
   1656298.46901
 22
   5343707.29728
 32
    -10505.89935
 13
   1656298.46901
 23
   5343707.29728
 33
    -10505.89935
 62
5
 70
0
  0
3DFACE
  5
3189F
  8
default
 10
   1659111.56780
 20
   5345548.24319
 30
    -12062.97959
 11
   1656632.72076
 21
   5344847.93067
 31
    -11785.63028
 12
   1658312.96230
 22
   5344323.68132
 32
    -10731.66665
 13
   1658312.96230
 23
   5344323.68132
 33
    -10731.66665
 62
5
 70
0
  0
3DFACE
  5
318A0
  8
default
 10
   1660125.17095
 20
   5345247.28125
 30
    -11336.52337
 11
   1659111.56780
 21
   5345548.24319
 31
    -12062.97959
 12
   1658312.96230
 22
   5344323.68132
 32
    -10731.66665
 13
   1658312.96230
 23
   5344323.68132
 33
    -10731.66665
 62
5
 70
0
  0
3DFACE
  5
318A1
  8
default
 10
   1659726.10360
 20
   5345582.13851
 30
    -11904.32836
 11
   1659111.56780
 21
   5345548.24319
 31
    -12062.97959
 12
   1660125.17095
 22
   5345247.28125
 32
    -11336.52337
 13
   1660125.17095
 23
   5345247.28125
 33
    -11336.52337
 62
5
 70
0
  0
3DFACE
  5
318A2
  8
default
 10
   1659111.56780
 20
   5345548.24319
 30
    -12062.97959
 11
   1659726.10360
 21
   5345582.13851
 31
    -11904.32836
 12
   1659539.69088
 22
   5345738.55736
 32
    -12210.82952
 13
   1659539.69088
 23
   5345738.55736
 33
    -12210.82952
 62
5
 70
0
  0
3DFACE
  5
318A3
  8
default
 10
   1659539.69088
 20
   5345738.55736
 30
    -12210.82952
 11
   1659305.85584
 21
   5345934.76826
 31
    -12577.91292
 12
   1659111.56780
 22
   5345548.24319
 32
    -12062.97959
 13
   1659111.56780
 23
   5345548.24319
 33
    -12062.97959
 62
5
 70
0
  0
3DFACE
  5
318A4
  8
default
 10
   1658853.95680
 20
   5346313.95657
 30
    -13230.94487
 11
   1659111.56780
 21
   5345548.24319
 31
    -12062.97959
 12
   1659305.85584
 22
   5345934.76826
 32
    -12577.91292
 13
   1659305.85584
 23
   5345934.76826
 33
    -12577.91292
 62
5
 70
0
  0
3DFACE
  5
318A5
  8
default
 10
   1657743.48663
 20
   5346245.92364
 30
    -13397.96756
 11
   1659111.56780
 21
   5345548.24319
 31
    -12062.97959
 12
   1658853.95680
 22
   5346313.95657
 32
    -13230.94487
 13
   1658853.95680
 23
   5346313.95657
 33
    -13230.94487
 62
5
 70
0
  0
3DFACE
  5
318A6
  8
default
 10
   1658604.77103
 20
   5346523.04826
 30
    -13592.60927
 11
   1657743.48663
 21
   5346245.92364
 31
    -13397.96756
 12
   1658853.95680
 22
   5346313.95657
 32
    -13230.94487
 13
   1658853.95680
 23
   5346313.95657
 33
    -13230.94487
 62
5
 70
0
  0
3DFACE
  5
318A7
  8
default
 10
   1661102.06305
 20
   5344427.57145
 30
     -9874.51094
 11
   1660125.17095
 21
   5345247.28125
 31
    -11336.52337
 12
   1658312.96230
 22
   5344323.68132
 32
    -10731.66665
 13
   1658312.96230
 23
   5344323.68132
 33
    -10731.66665
 62
5
 70
0
  0
3DFACE
  5
318A8
  8
default
 10
   1661170.94124
 20
   5343989.26537
 30
     -9255.04610
 11
   1661102.06305
 21
   5344427.57145
 31
     -9874.51094
 12
   1658312.96230
 22
   5344323.68132
 32
    -10731.66665
 13
   1658312.96230
 23
   5344323.68132
 33
    -10731.66665
 62
5
 70
0
  0
3DFACE
  5
318A9
  8
default
 10
   1661172.43355
 20
   5344368.52358
 30
     -9765.23063
 11
   1661102.06305
 21
   5344427.57145
 31
     -9874.51094
 12
   1661170.94124
 22
   5343989.26537
 32
     -9255.04610
 13
   1661170.94124
 23
   5343989.26537
 33
     -9255.04610
 62
5
 70
0
  0
3DFACE
  5
318AA
  8
default
 10
   1661405.28910
 20
   5344173.13458
 30
     -9403.62277
 11
   1661172.43355
 21
   5344368.52358
 31
     -9765.23063
 12
   1661170.94124
 22
   5343989.26537
 32
     -9255.04610
 13
   1661170.94124
 23
   5343989.26537
 33
     -9255.04610
 62
5
 70
0
  0
3DFACE
  5
318AB
  8
default
 10
   1661544.00128
 20
   5344056.74125
 30
     -9168.40311
 11
   1661405.28910
 21
   5344173.13458
 31
     -9403.62277
 12
   1661170.94124
 22
   5343989.26537
 32
     -9255.04610
 13
   1661170.94124
 23
   5343989.26537
 33
     -9255.04610
 62
5
 70
0
  0
3DFACE
  5
318AC
  8
default
 10
   1661883.35613
 20
   5343084.14107
 30
     -7854.67216
 11
   1661544.00128
 21
   5344056.74125
 31
     -9168.40311
 12
   1661170.94124
 22
   5343989.26537
 32
     -9255.04610
 13
   1661170.94124
 23
   5343989.26537
 33
     -9255.04610
 62
5
 70
0
  0
3DFACE
  5
318AD
  8
default
 10
   1661883.35613
 20
   5343084.14107
 30
     -7854.67216
 11
   1662332.03758
 21
   5343395.50027
 31
     -8025.40821
 12
   1661544.00128
 22
   5344056.74125
 32
     -9168.40311
 13
   1661544.00128
 23
   5344056.74125
 33
     -9168.40311
 62
5
 70
0
  0
3DFACE
  5
318AE
  8
default
 10
   1662332.03758
 20
   5343395.50027
 30
     -8025.40821
 11
   1661883.35613
 21
   5343084.14107
 31
     -7854.67216
 12
   1663149.93866
 22
   5342709.19978
 32
     -6747.51008
 13
   1663149.93866
 23
   5342709.19978
 33
     -6747.51008
 62
5
 70
0
  0
3DFACE
  5
318AF
  8
default
 10
   1663104.80933
 20
   5342602.30202
 30
     -6634.54810
 11
   1663149.93866
 21
   5342709.19978
 31
     -6747.51008
 12
   1661883.35613
 22
   5343084.14107
 32
     -7854.67216
 13
   1661883.35613
 23
   5343084.14107
 33
     -7854.67216
 62
5
 70
0
  0
3DFACE
  5
318B0
  8
default
 10
   1663104.80933
 20
   5342602.30202
 30
     -6634.54810
 11
   1663197.17626
 21
   5342669.56272
 31
     -6666.03083
 12
   1663149.93866
 22
   5342709.19978
 32
     -6747.51008
 13
   1663149.93866
 23
   5342709.19978
 33
     -6747.51008
 62
5
 70
0
  0
3DFACE
  5
318B1
  8
default
 10
   1663285.40187
 20
   5342595.53265
 30
     -6518.66775
 11
   1663197.17626
 21
   5342669.56272
 31
     -6666.03083
 12
   1663104.80933
 22
   5342602.30202
 32
     -6634.54810
 13
   1663104.80933
 23
   5342602.30202
 33
     -6634.54810
 62
5
 70
0
  0
3DFACE
  5
318B2
  8
default
 10
   1663388.92036
 20
   5341449.79562
 30
     -5286.80410
 11
   1663285.40187
 21
   5342595.53265
 31
     -6518.66775
 12
   1663104.80933
 22
   5342602.30202
 32
     -6634.54810
 13
   1663104.80933
 23
   5342602.30202
 33
     -6634.54810
 62
5
 70
0
  0
3DFACE
  5
318B3
  8
default
 10
   1663285.40187
 20
   5342595.53265
 30
     -6518.66775
 11
   1663388.92036
 21
   5341449.79562
 31
     -5286.80410
 12
   1664160.57237
 22
   5341861.17741
 32
     -5241.06025
 13
   1664160.57237
 23
   5341861.17741
 33
     -5241.06025
 62
5
 70
0
  0
3DFACE
  5
318B4
  8
default
 10
   1664160.57237
 20
   5341861.17741
 30
     -5241.06025
 11
   1663388.92036
 21
   5341449.79562
 31
     -5286.80410
 12
   1664673.84278
 22
   5341430.49239
 32
     -4537.14249
 13
   1664673.84278
 23
   5341430.49239
 33
     -4537.14249
 62
5
 70
0
  0
3DFACE
  5
318B5
  8
default
 10
   1664673.84278
 20
   5341430.49239
 30
     -4537.14249
 11
   1663388.92036
 21
   5341449.79562
 31
     -5286.80410
 12
   1664022.62285
 22
   5340442.91608
 32
     -3963.37823
 13
   1664022.62285
 23
   5340442.91608
 33
     -3963.37823
 62
5
 70
0
  0
3DFACE
  5
318B6
  8
default
 10
   1664022.62285
 20
   5340442.91608
 30
     -3963.37823
 11
   1665002.65577
 21
   5341154.58553
 31
     -3973.49024
 12
   1664673.84278
 22
   5341430.49239
 32
     -4537.14249
 13
   1664673.84278
 23
   5341430.49239
 33
     -4537.14249
 62
5
 70
0
  0
3DFACE
  5
318B7
  8
default
 10
   1664022.62285
 20
   5340442.91608
 30
     -3963.37823
 11
   1665115.50929
 21
   5341059.89019
 31
     -3780.03640
 12
   1665002.65577
 22
   5341154.58553
 32
     -3973.49024
 13
   1665002.65577
 23
   5341154.58553
 33
     -3973.49024
 62
5
 70
0
  0
3DFACE
  5
318B8
  8
default
 10
   1665943.12296
 20
   5340365.43986
 30
     -2441.69029
 11
   1665115.50929
 21
   5341059.89019
 31
     -3780.03640
 12
   1664022.62285
 22
   5340442.91608
 32
     -3963.37823
 13
   1664022.62285
 23
   5340442.91608
 33
     -3963.37823
 62
5
 70
0
  0
3DFACE
  5
318B9
  8
default
 10
   1664022.62285
 20
   5340442.91608
 30
     -3963.37823
 11
   1664099.48001
 21
   5338074.82124
 31
     -2040.17929
 12
   1665943.12296
 22
   5340365.43986
 32
     -2441.69029
 13
   1665943.12296
 23
   5340365.43986
 33
     -2441.69029
 62
5
 70
0
  0
3DFACE
  5
318BA
  8
default
 10
   1664022.62285
 20
   5340442.91608
 30
     -3963.37823
 11
   1662546.08161
 21
   5338362.70172
 31
     -3135.18875
 12
   1664099.48001
 22
   5338074.82124
 32
     -2040.17929
 13
   1664099.48001
 23
   5338074.82124
 33
     -2040.17929
 62
5
 70
0
  0
3DFACE
  5
318BB
  8
default
 10
   1661397.93547
 20
   5339259.44618
 30
     -4389.21923
 11
   1662546.08161
 21
   5338362.70172
 31
     -3135.18875
 12
   1664022.62285
 22
   5340442.91608
 32
     -3963.37823
 13
   1664022.62285
 23
   5340442.91608
 33
     -3963.37823
 62
5
 70
0
  0
3DFACE
  5
318BC
  8
default
 10
   1661407.46806
 20
   5336860.92600
 30
     -2754.41638
 11
   1662546.08161
 21
   5338362.70172
 31
     -3135.18875
 12
   1661397.93547
 22
   5339259.44618
 32
     -4389.21923
 13
   1661397.93547
 23
   5339259.44618
 33
     -4389.21923
 62
5
 70
0
  0
3DFACE
  5
318BD
  8
default
 10
   1664099.48001
 20
   5338074.82124
 30
     -2040.17929
 11
   1662546.08161
 21
   5338362.70172
 31
     -3135.18875
 12
   1661407.46806
 22
   5336860.92600
 32
     -2754.41638
 13
   1661407.46806
 23
   5336860.92600
 33
     -2754.41638
 62
5
 70
0
  0
3DFACE
  5
318BE
  8
default
 10
   1661407.46806
 20
   5336860.92600
 30
     -2754.41638
 11
   1664293.76231
 21
   5336707.90449
 31
     -1046.56751
 12
   1664099.48001
 22
   5338074.82124
 32
     -2040.17929
 13
   1664099.48001
 23
   5338074.82124
 33
     -2040.17929
 62
5
 70
0
  0
3DFACE
  5
318BF
  8
default
 10
   1662519.01390
 20
   5335297.47999
 30
     -1396.01684
 11
   1664293.76231
 21
   5336707.90449
 31
     -1046.56751
 12
   1661407.46806
 22
   5336860.92600
 32
     -2754.41638
 13
   1661407.46806
 23
   5336860.92600
 33
     -2754.41638
 62
5
 70
0
  0
3DFACE
  5
318C0
  8
default
 10
   1664415.48262
 20
   5334752.45548
 30
        -0.09195
 11
   1664293.76231
 21
   5336707.90449
 31
     -1046.56751
 12
   1662519.01390
 22
   5335297.47999
 32
     -1396.01684
 13
   1662519.01390
 23
   5335297.47999
 33
     -1396.01684
 62
5
 70
0
  0
3DFACE
  5
318C1
  8
default
 10
   1665007.45333
 20
   5335570.86244
 30
        -0.35627
 11
   1664293.76231
 21
   5336707.90449
 31
     -1046.56751
 12
   1664415.48262
 22
   5334752.45548
 32
        -0.09195
 13
   1664415.48262
 23
   5334752.45548
 33
        -0.09195
 62
5
 70
0
  0
3DFACE
  5
318C2
  8
default
 10
   1665600.50154
 20
   5336388.05107
 30
        -2.54908
 11
   1664293.76231
 21
   5336707.90449
 31
     -1046.56751
 12
   1665007.45333
 22
   5335570.86244
 32
        -0.35627
 13
   1665007.45333
 23
   5335570.86244
 33
        -0.35627
 62
5
 70
0
  0
3DFACE
  5
318C3
  8
default
 10
   1665600.50154
 20
   5336388.05107
 30
        -2.54908
 11
   1665549.08149
 21
   5338265.08500
 31
     -1167.33875
 12
   1664293.76231
 22
   5336707.90449
 32
     -1046.56751
 13
   1664293.76231
 23
   5336707.90449
 33
     -1046.56751
 62
5
 70
0
  0
3DFACE
  5
318C4
  8
default
 10
   1666193.48608
 20
   5337205.31591
 30
        -4.59887
 11
   1665549.08149
 21
   5338265.08500
 31
     -1167.33875
 12
   1665600.50154
 22
   5336388.05107
 32
        -2.54908
 13
   1665600.50154
 23
   5336388.05107
 33
        -2.54908
 62
5
 70
0
  0
3DFACE
  5
318C5
  8
default
 10
   1666784.79312
 20
   5338024.46843
 30
        -3.70876
 11
   1665549.08149
 21
   5338265.08500
 31
     -1167.33875
 12
   1666193.48608
 22
   5337205.31591
 32
        -4.59887
 13
   1666193.48608
 23
   5337205.31591
 33
        -4.59887
 62
5
 70
0
  0
3DFACE
  5
318C6
  8
default
 10
   1667383.00109
 20
   5338835.83664
 30
       -15.04210
 11
   1665549.08149
 21
   5338265.08500
 31
     -1167.33875
 12
   1666784.79312
 22
   5338024.46843
 32
        -3.70876
 13
   1666784.79312
 23
   5338024.46843
 33
        -3.70876
 62
5
 70
0
  0
3DFACE
  5
318C7
  8
default
 10
   1667383.00109
 20
   5338835.83664
 30
       -15.04210
 11
   1667228.54237
 21
   5339286.84491
 31
      -494.90797
 12
   1665549.08149
 22
   5338265.08500
 32
     -1167.33875
 13
   1665549.08149
 23
   5338265.08500
 33
     -1167.33875
 62
5
 70
0
  0
3DFACE
  5
318C8
  8
default
 10
   1667383.00109
 20
   5338835.83664
 30
       -15.04210
 11
   1667551.58906
 21
   5339015.77655
 31
       -16.04628
 12
   1667228.54237
 22
   5339286.84491
 32
      -494.90797
 13
   1667228.54237
 23
   5339286.84491
 33
      -494.90797
 62
5
 70
0
  0
3DFACE
  5
318C9
  8
default
 10
   1667228.54237
 20
   5339286.84491
 30
      -494.90797
 11
   1666848.11264
 21
   5339606.06336
 31
     -1069.61194
 12
   1665549.08149
 22
   5338265.08500
 32
     -1167.33875
 13
   1665549.08149
 23
   5338265.08500
 33
     -1167.33875
 62
5
 70
0
  0
3DFACE
  5
318CA
  8
default
 10
   1666196.48794
 20
   5340152.84140
 30
     -2089.21578
 11
   1665549.08149
 21
   5338265.08500
 31
     -1167.33875
 12
   1666848.11264
 22
   5339606.06336
 32
     -1069.61194
 13
   1666848.11264
 23
   5339606.06336
 33
     -1069.61194
 62
5
 70
0
  0
3DFACE
  5
318CB
  8
default
 10
   1665549.08149
 20
   5338265.08500
 30
     -1167.33875
 11
   1666196.48794
 21
   5340152.84140
 31
     -2089.21578
 12
   1666129.00084
 22
   5340209.46980
 32
     -2177.49890
 13
   1666129.00084
 23
   5340209.46980
 33
     -2177.49890
 62
5
 70
0
  0
3DFACE
  5
318CC
  8
default
 10
   1664099.48001
 20
   5338074.82124
 30
     -2040.17929
 11
   1665549.08149
 21
   5338265.08500
 31
     -1167.33875
 12
   1666129.00084
 22
   5340209.46980
 32
     -2177.49890
 13
   1666129.00084
 23
   5340209.46980
 33
     -2177.49890
 62
5
 70
0
  0
3DFACE
  5
318CD
  8
default
 10
   1664293.76231
 20
   5336707.90449
 30
     -1046.56751
 11
   1665549.08149
 21
   5338265.08500
 31
     -1167.33875
 12
   1664099.48001
 22
   5338074.82124
 32
     -2040.17929
 13
   1664099.48001
 23
   5338074.82124
 33
     -2040.17929
 62
5
 70
0
  0
3DFACE
  5
318CE
  8
default
 10
   1666129.00084
 20
   5340209.46980
 30
     -2177.49890
 11
   1665943.12296
 21
   5340365.43986
 31
     -2441.69029
 12
   1664099.48001
 22
   5338074.82124
 32
     -2040.17929
 13
   1664099.48001
 23
   5338074.82124
 33
     -2040.17929
 62
5
 70
0
  0
3DFACE
  5
318CF
  8
default
 10
   1664415.48262
 20
   5334752.45548
 30
        -0.09195
 11
   1662519.01390
 21
   5335297.47999
 31
     -1396.01684
 12
   1663825.50324
 22
   5333931.80034
 32
        -3.36828
 13
   1663825.50324
 23
   5333931.80034
 33
        -3.36828
 62
5
 70
0
  0
3DFACE
  5
318D0
  8
default
 10
   1662519.01390
 20
   5335297.47999
 30
     -1396.01684
 11
   1661936.56233
 21
   5333441.03580
 31
      -934.84130
 12
   1663825.50324
 22
   5333931.80034
 32
        -3.36828
 13
   1663825.50324
 23
   5333931.80034
 33
        -3.36828
 62
5
 70
0
  0
3DFACE
  5
318D1
  8
default
 10
   1660693.43708
 20
   5333888.45032
 30
     -1890.09629
 11
   1661936.56233
 21
   5333441.03580
 31
      -934.84130
 12
   1662519.01390
 22
   5335297.47999
 32
     -1396.01684
 13
   1662519.01390
 23
   5335297.47999
 33
     -1396.01684
 62
5
 70
0
  0
3DFACE
  5
318D2
  8
default
 10
   1660495.74527
 20
   5331992.58883
 30
     -1176.74911
 11
   1661936.56233
 21
   5333441.03580
 31
      -934.84130
 12
   1660693.43708
 22
   5333888.45032
 32
     -1890.09629
 13
   1660693.43708
 23
   5333888.45032
 33
     -1890.09629
 62
5
 70
0
  0
3DFACE
  5
318D3
  8
default
 10
   1662051.12248
 20
   5331474.85056
 30
        -5.29814
 11
   1661936.56233
 21
   5333441.03580
 31
      -934.84130
 12
   1660495.74527
 22
   5331992.58883
 32
     -1176.74911
 13
   1660495.74527
 23
   5331992.58883
 33
     -1176.74911
 62
5
 70
0
  0
3DFACE
  5
318D4
  8
default
 10
   1662641.21566
 20
   5332295.37724
 30
        -2.22414
 11
   1661936.56233
 21
   5333441.03580
 31
      -934.84130
 12
   1662051.12248
 22
   5331474.85056
 32
        -5.29814
 13
   1662051.12248
 23
   5331474.85056
 33
        -5.29814
 62
5
 70
0
  0
3DFACE
  5
318D5
  8
default
 10
   1663233.38870
 20
   5333113.55576
 30
        -2.84823
 11
   1661936.56233
 21
   5333441.03580
 31
      -934.84130
 12
   1662641.21566
 22
   5332295.37724
 32
        -2.22414
 13
   1662641.21566
 23
   5332295.37724
 33
        -2.22414
 62
5
 70
0
  0
3DFACE
  5
318D6
  8
default
 10
   1663825.50324
 20
   5333931.80034
 30
        -3.36828
 11
   1661936.56233
 21
   5333441.03580
 31
      -934.84130
 12
   1663233.38870
 22
   5333113.55576
 32
        -2.84823
 13
   1663233.38870
 23
   5333113.55576
 33
        -2.84823
 62
5
 70
0
  0
3DFACE
  5
318D7
  8
default
 10
   1662051.12248
 20
   5331474.85056
 30
        -5.29814
 11
   1660495.74527
 21
   5331992.58883
 31
     -1176.74911
 12
   1661458.91518
 22
   5330656.71072
 32
        -4.61315
 13
   1661458.91518
 23
   5330656.71072
 33
        -4.61315
 62
5
 70
0
  0
3DFACE
  5
318D8
  8
default
 10
   1661458.91518
 20
   5330656.71072
 30
        -4.61315
 11
   1660495.74527
 21
   5331992.58883
 31
     -1176.74911
 12
   1660867.00650
 22
   5329838.23373
 32
        -4.45911
 13
   1660867.00650
 23
   5329838.23373
 33
        -4.45911
 62
5
 70
0
  0
3DFACE
  5
318D9
  8
default
 10
   1660867.00650
 20
   5329838.23373
 30
        -4.45911
 11
   1660495.74527
 21
   5331992.58883
 31
     -1176.74911
 12
   1658766.48102
 22
   5331224.18470
 32
     -1889.52042
 13
   1658766.48102
 23
   5331224.18470
 33
     -1889.52042
 62
5
 70
0
  0
3DFACE
  5
318DA
  8
default
 10
   1658766.48102
 20
   5331224.18470
 30
     -1889.52042
 11
   1658862.14269
 21
   5329194.75840
 31
      -991.30111
 12
   1660867.00650
 22
   5329838.23373
 32
        -4.45911
 13
   1660867.00650
 23
   5329838.23373
 33
        -4.45911
 62
5
 70
0
  0
3DFACE
  5
318DB
  8
default
 10
   1656308.63144
 20
   5329423.26803
 30
     -2816.71783
 11
   1658862.14269
 21
   5329194.75840
 31
      -991.30111
 12
   1658766.48102
 22
   5331224.18470
 32
     -1889.52042
 13
   1658766.48102
 23
   5331224.18470
 33
     -1889.52042
 62
5
 70
0
  0
3DFACE
  5
318DC
  8
default
 10
   1657678.44175
 20
   5327908.41566
 30
     -1462.66604
 11
   1658862.14269
 21
   5329194.75840
 31
      -991.30111
 12
   1656308.63144
 22
   5329423.26803
 32
     -2816.71783
 13
   1656308.63144
 23
   5329423.26803
 33
     -2816.71783
 62
5
 70
0
  0
3DFACE
  5
318DD
  8
default
 10
   1659456.14839
 20
   5327111.57717
 30
        -4.06452
 11
   1658862.14269
 21
   5329194.75840
 31
      -991.30111
 12
   1657678.44175
 22
   5327908.41566
 32
     -1462.66604
 13
   1657678.44175
 23
   5327908.41566
 33
     -1462.66604
 62
5
 70
0
  0
3DFACE
  5
318DE
  8
default
 10
   1659815.65415
 20
   5328100.11223
 30
        -1.72090
 11
   1658862.14269
 21
   5329194.75840
 31
      -991.30111
 12
   1659456.14839
 22
   5327111.57717
 32
        -4.06452
 13
   1659456.14839
 23
   5327111.57717
 33
        -4.06452
 62
5
 70
0
  0
3DFACE
  5
318DF
  8
default
 10
   1660287.79494
 20
   5329010.36386
 30
         3.47374
 11
   1658862.14269
 21
   5329194.75840
 31
      -991.30111
 12
   1659815.65415
 22
   5328100.11223
 32
        -1.72090
 13
   1659815.65415
 23
   5328100.11223
 33
        -1.72090
 62
5
 70
0
  0
3DFACE
  5
318E0
  8
default
 10
   1660867.00650
 20
   5329838.23373
 30
        -4.45911
 11
   1658862.14269
 21
   5329194.75840
 31
      -991.30111
 12
   1660287.79494
 22
   5329010.36386
 32
         3.47374
 13
   1660287.79494
 23
   5329010.36386
 33
         3.47374
 62
5
 70
0
  0
3DFACE
  5
318E1
  8
default
 10
   1659456.14839
 20
   5327111.57717
 30
        -4.06452
 11
   1657678.44175
 21
   5327908.41566
 31
     -1462.66604
 12
   1659097.78692
 22
   5326121.74815
 32
        -8.44972
 13
   1659097.78692
 23
   5326121.74815
 33
        -8.44972
 62
5
 70
0
  0
3DFACE
  5
318E2
  8
default
 10
   1657678.44175
 20
   5327908.41566
 30
     -1462.66604
 11
   1657446.84773
 21
   5325822.92901
 31
     -1085.34824
 12
   1659097.78692
 22
   5326121.74815
 32
        -8.44972
 13
   1659097.78692
 23
   5326121.74815
 33
        -8.44972
 62
5
 70
0
  0
3DFACE
  5
318E3
  8
default
 10
   1656022.93851
 20
   5326131.82979
 30
     -2169.29702
 11
   1657446.84773
 21
   5325822.92901
 31
     -1085.34824
 12
   1657678.44175
 22
   5327908.41566
 32
     -1462.66604
 13
   1657678.44175
 23
   5327908.41566
 33
     -1462.66604
 62
5
 70
0
  0
3DFACE
  5
318E4
  8
default
 10
   1656556.08274
 20
   5324150.41984
 30
     -1286.31598
 11
   1657446.84773
 21
   5325822.92901
 31
     -1085.34824
 12
   1656022.93851
 22
   5326131.82979
 32
     -2169.29702
 13
   1656022.93851
 23
   5326131.82979
 33
     -2169.29702
 62
5
 70
0
  0
3DFACE
  5
318E5
  8
default
 10
   1658375.27480
 20
   5324148.62602
 30
        -6.92673
 11
   1657446.84773
 21
   5325822.92901
 31
     -1085.34824
 12
   1656556.08274
 22
   5324150.41984
 32
     -1286.31598
 13
   1656556.08274
 23
   5324150.41984
 33
     -1286.31598
 62
5
 70
0
  0
3DFACE
  5
318E6
  8
default
 10
   1658736.21163
 20
   5325135.54749
 30
        -7.12063
 11
   1657446.84773
 21
   5325822.92901
 31
     -1085.34824
 12
   1658375.27480
 22
   5324148.62602
 32
        -6.92673
 13
   1658375.27480
 23
   5324148.62602
 33
        -6.92673
 62
5
 70
0
  0
3DFACE
  5
318E7
  8
default
 10
   1659097.78692
 20
   5326121.74815
 30
        -8.44972
 11
   1657446.84773
 21
   5325822.92901
 31
     -1085.34824
 12
   1658736.21163
 22
   5325135.54749
 32
        -7.12063
 13
   1658736.21163
 23
   5325135.54749
 33
        -7.12063
 62
5
 70
0
  0
3DFACE
  5
318E8
  8
default
 10
   1658375.27480
 20
   5324148.62602
 30
        -6.92673
 11
   1656556.08274
 21
   5324150.41984
 31
     -1286.31598
 12
   1658013.60205
 22
   5323162.53540
 32
        -5.42435
 13
   1658013.60205
 23
   5323162.53540
 33
        -5.42435
 62
5
 70
0
  0
3DFACE
  5
318E9
  8
default
 10
   1656556.08274
 20
   5324150.41984
 30
     -1286.31598
 11
   1656143.17102
 21
   5322167.78563
 31
     -1061.80643
 12
   1658013.60205
 22
   5323162.53540
 32
        -5.42435
 13
   1658013.60205
 23
   5323162.53540
 33
        -5.42435
 62
5
 70
0
  0
3DFACE
  5
318EA
  8
default
 10
   1654883.85791
 20
   5322943.19507
 30
     -2152.06302
 11
   1656143.17102
 21
   5322167.78563
 31
     -1061.80643
 12
   1656556.08274
 22
   5324150.41984
 32
     -1286.31598
 13
   1656556.08274
 23
   5324150.41984
 33
     -1286.31598
 62
5
 70
0
  0
3DFACE
  5
318EB
  8
default
 10
   1654394.19137
 20
   5320752.45702
 30
     -1934.51133
 11
   1656143.17102
 21
   5322167.78563
 31
     -1061.80643
 12
   1654883.85791
 22
   5322943.19507
 32
     -2152.06302
 13
   1654883.85791
 23
   5322943.19507
 33
     -2152.06302
 62
5
 70
0
  0
3DFACE
  5
318EC
  8
default
 10
   1654394.19137
 20
   5320752.45702
 30
     -1934.51133
 11
   1655567.23978
 21
   5320140.13540
 31
      -946.99858
 12
   1656143.17102
 22
   5322167.78563
 32
     -1061.80643
 13
   1656143.17102
 23
   5322167.78563
 33
     -1061.80643
 62
5
 70
0
  0
3DFACE
  5
318ED
  8
default
 10
   1654135.68943
 20
   5318553.58452
 30
     -1547.68831
 11
   1655567.23978
 21
   5320140.13540
 31
      -946.99858
 12
   1654394.19137
 22
   5320752.45702
 32
     -1934.51133
 13
   1654394.19137
 23
   5320752.45702
 33
     -1934.51133
 62
5
 70
0
  0
3DFACE
  5
318EE
  8
default
 10
   1656206.71222
 20
   5318230.41822
 30
        -0.53314
 11
   1655567.23978
 21
   5320140.13540
 31
      -946.99858
 12
   1654135.68943
 22
   5318553.58452
 32
     -1547.68831
 13
   1654135.68943
 23
   5318553.58452
 33
     -1547.68831
 62
5
 70
0
  0
3DFACE
  5
318EF
  8
default
 10
   1656568.63387
 20
   5319216.22784
 30
        -2.47807
 11
   1655567.23978
 21
   5320140.13540
 31
      -946.99858
 12
   1656206.71222
 22
   5318230.41822
 32
        -0.53314
 13
   1656206.71222
 23
   5318230.41822
 33
        -0.53314
 62
5
 70
0
  0
3DFACE
  5
318F0
  8
default
 10
   1656929.80683
 20
   5320202.88273
 30
        -3.09181
 11
   1655567.23978
 21
   5320140.13540
 31
      -946.99858
 12
   1656568.63387
 22
   5319216.22784
 32
        -2.47807
 13
   1656568.63387
 23
   5319216.22784
 33
        -2.47807
 62
5
 70
0
  0
3DFACE
  5
318F1
  8
default
 10
   1657291.54238
 20
   5321188.90245
 30
        -4.70585
 11
   1655567.23978
 21
   5320140.13540
 31
      -946.99858
 12
   1656929.80683
 22
   5320202.88273
 32
        -3.09181
 13
   1656929.80683
 23
   5320202.88273
 33
        -3.09181
 62
5
 70
0
  0
3DFACE
  5
318F2
  8
default
 10
   1656143.17102
 20
   5322167.78563
 30
     -1061.80643
 11
   1655567.23978
 21
   5320140.13540
 31
      -946.99858
 12
   1657291.54238
 22
   5321188.90245
 32
        -4.70585
 13
   1657291.54238
 23
   5321188.90245
 33
        -4.70585
 62
5
 70
0
  0
3DFACE
  5
318F3
  8
default
 10
   1657653.28426
 20
   5322174.91503
 30
        -6.33115
 11
   1656143.17102
 21
   5322167.78563
 31
     -1061.80643
 12
   1657291.54238
 22
   5321188.90245
 32
        -4.70585
 13
   1657291.54238
 23
   5321188.90245
 33
        -4.70585
 62
5
 70
0
  0
3DFACE
  5
318F4
  8
default
 10
   1658013.60205
 20
   5323162.53540
 30
        -5.42435
 11
   1656143.17102
 21
   5322167.78563
 31
     -1061.80643
 12
   1657653.28426
 22
   5322174.91503
 32
        -6.33115
 13
   1657653.28426
 23
   5322174.91503
 33
        -6.33115
 62
5
 70
0
  0
3DFACE
  5
318F5
  8
default
 10
   1656206.71222
 20
   5318230.41822
 30
        -0.53314
 11
   1654135.68943
 21
   5318553.58452
 31
     -1547.68831
 12
   1655845.81416
 22
   5317243.45297
 32
        -0.40820
 13
   1655845.81416
 23
   5317243.45297
 33
        -0.40820
 62
5
 70
0
  0
3DFACE
  5
318F6
  8
default
 10
   1654135.68943
 20
   5318553.58452
 30
     -1547.68831
 11
   1654057.28247
 21
   5316667.76408
 31
     -1114.81322
 12
   1655845.81416
 22
   5317243.45297
 32
        -0.40820
 13
   1655845.81416
 23
   5317243.45297
 33
        -0.40820
 62
5
 70
0
  0
3DFACE
  5
318F7
  8
default
 10
   1652514.60479
 20
   5316459.96064
 30
     -2153.19288
 11
   1654057.28247
 21
   5316667.76408
 31
     -1114.81322
 12
   1654135.68943
 22
   5318553.58452
 32
     -1547.68831
 13
   1654135.68943
 23
   5318553.58452
 33
     -1547.68831
 62
5
 70
0
  0
3DFACE
  5
318F8
  8
default
 10
   1652514.60479
 20
   5316459.96064
 30
     -2153.19288
 11
   1653899.97733
 21
   5315155.07037
 31
      -837.58807
 12
   1654057.28247
 22
   5316667.76408
 32
     -1114.81322
 13
   1654057.28247
 23
   5316667.76408
 33
     -1114.81322
 62
5
 70
0
  0
3DFACE
  5
318F9
  8
default
 10
   1652449.61210
 20
   5313878.47737
 30
     -1531.37609
 11
   1653899.97733
 21
   5315155.07037
 31
      -837.58807
 12
   1652514.60479
 22
   5316459.96064
 32
     -2153.19288
 13
   1652514.60479
 23
   5316459.96064
 33
     -2153.19288
 62
5
 70
0
  0
3DFACE
  5
318FA
  8
default
 10
   1653607.17001
 20
   5313532.39172
 30
      -625.13608
 11
   1653899.97733
 21
   5315155.07037
 31
      -837.58807
 12
   1652449.61210
 22
   5313878.47737
 32
     -1531.37609
 13
   1652449.61210
 23
   5313878.47737
 33
     -1531.37609
 62
5
 70
0
  0
3DFACE
  5
318FB
  8
default
 10
   1653607.17001
 20
   5313532.39172
 30
      -625.13608
 11
   1653737.13649
 21
   5313580.42419
 31
      -545.82712
 12
   1653899.97733
 22
   5315155.07037
 32
      -837.58807
 13
   1653899.97733
 23
   5315155.07037
 33
      -837.58807
 62
5
 70
0
  0
3DFACE
  5
318FC
  8
default
 10
   1654272.51041
 20
   5313777.90248
 30
      -219.02898
 11
   1653899.97733
 21
   5315155.07037
 31
      -837.58807
 12
   1653737.13649
 22
   5313580.42419
 32
      -545.82712
 13
   1653737.13649
 23
   5313580.42419
 33
      -545.82712
 62
5
 70
0
  0
3DFACE
  5
318FD
  8
default
 10
   1654762.96841
 20
   5314282.72836
 30
         0.23616
 11
   1653899.97733
 21
   5315155.07037
 31
      -837.58807
 12
   1654272.51041
 22
   5313777.90248
 32
      -219.02898
 13
   1654272.51041
 23
   5313777.90248
 33
      -219.02898
 62
5
 70
0
  0
3DFACE
  5
318FE
  8
default
 10
   1655123.85803
 20
   5315269.70313
 30
         0.12621
 11
   1653899.97733
 21
   5315155.07037
 31
      -837.58807
 12
   1654762.96841
 22
   5314282.72836
 32
         0.23616
 13
   1654762.96841
 23
   5314282.72836
 33
         0.23616
 62
5
 70
0
  0
3DFACE
  5
318FF
  8
default
 10
   1654057.28247
 20
   5316667.76408
 30
     -1114.81322
 11
   1653899.97733
 21
   5315155.07037
 31
      -837.58807
 12
   1655123.85803
 22
   5315269.70313
 32
         0.12621
 13
   1655123.85803
 23
   5315269.70313
 33
         0.12621
 62
5
 70
0
  0
3DFACE
  5
31900
  8
default
 10
   1655484.66823
 20
   5316256.76757
 30
         0.15748
 11
   1654057.28247
 21
   5316667.76408
 31
     -1114.81322
 12
   1655123.85803
 22
   5315269.70313
 32
         0.12621
 13
   1655123.85803
 23
   5315269.70313
 33
         0.12621
 62
5
 70
0
  0
3DFACE
  5
31901
  8
default
 10
   1655845.81416
 20
   5317243.45297
 30
        -0.40820
 11
   1654057.28247
 21
   5316667.76408
 31
     -1114.81322
 12
   1655484.66823
 22
   5316256.76757
 32
         0.15748
 13
   1655484.66823
 23
   5316256.76757
 33
         0.15748
 62
5
 70
0
  0
3DFACE
  5
31902
  8
default
 10
   1654392.96786
 20
   5313822.17804
 30
      -144.71241
 11
   1654762.96841
 21
   5314282.72836
 31
         0.23616
 12
   1654272.51041
 22
   5313777.90248
 32
      -219.02898
 13
   1654272.51041
 23
   5313777.90248
 33
      -219.02898
 62
5
 70
0
  0
3DFACE
  5
31903
  8
default
 10
   1654762.96841
 20
   5314282.72836
 30
         0.23616
 11
   1654392.96786
 21
   5313822.17804
 31
      -144.71241
 12
   1654622.90780
 22
   5313905.13248
 32
        -2.44908
 13
   1654622.90780
 23
   5313905.13248
 33
        -2.44908
 62
5
 70
0
  0
3DFACE
  5
31904
  8
default
 10
   1653607.17001
 20
   5313532.39172
 30
      -625.13608
 11
   1652449.61210
 21
   5313878.47737
 31
     -1531.37609
 12
   1653020.64828
 22
   5313315.30848
 32
      -981.43815
 13
   1653020.64828
 23
   5313315.30848
 33
      -981.43815
 62
5
 70
0
  0
3DFACE
  5
31905
  8
default
 10
   1652449.61210
 20
   5313878.47737
 30
     -1531.37609
 11
   1653011.91671
 21
   5313312.08760
 31
      -986.79708
 12
   1653020.64828
 22
   5313315.30848
 32
      -981.43815
 13
   1653020.64828
 23
   5313315.30848
 33
      -981.43815
 62
5
 70
0
  0
3DFACE
  5
31906
  8
default
 10
   1652449.61210
 20
   5313878.47737
 30
     -1531.37609
 11
   1652545.81706
 21
   5313139.97514
 31
     -1272.81623
 12
   1653011.91671
 22
   5313312.08760
 32
      -986.79708
 13
   1653011.91671
 23
   5313312.08760
 33
      -986.79708
 62
5
 70
0
  0
3DFACE
  5
31907
  8
default
 10
   1652383.98303
 20
   5313080.38788
 30
     -1372.16895
 11
   1652545.81706
 21
   5313139.97514
 31
     -1272.81623
 12
   1652449.61210
 22
   5313878.47737
 32
     -1531.37609
 13
   1652449.61210
 23
   5313878.47737
 33
     -1531.37609
 62
5
 70
0
  0
3DFACE
  5
31908
  8
default
 10
   1652283.86319
 20
   5313043.45690
 30
     -1433.29738
 11
   1652383.98303
 21
   5313080.38788
 31
     -1372.16895
 12
   1652449.61210
 22
   5313878.47737
 32
     -1531.37609
 13
   1652449.61210
 23
   5313878.47737
 33
     -1531.37609
 62
5
 70
0
  0
3DFACE
  5
31909
  8
default
 10
   1652449.61210
 20
   5313878.47737
 30
     -1531.37609
 11
   1651715.11343
 21
   5312867.10253
 31
     -1789.15975
 12
   1652283.86319
 22
   5313043.45690
 32
     -1433.29738
 13
   1652283.86319
 23
   5313043.45690
 33
     -1433.29738
 62
5
 70
0
  0
3DFACE
  5
3190A
  8
default
 10
   1651715.11343
 20
   5312867.10253
 30
     -1789.15975
 11
   1652449.61210
 21
   5313878.47737
 31
     -1531.37609
 12
   1650314.72097
 22
   5313230.47295
 32
     -2872.90573
 13
   1650314.72097
 23
   5313230.47295
 33
     -2872.90573
 62
5
 70
0
  0
3DFACE
  5
3190B
  8
default
 10
   1651715.11343
 20
   5312867.10253
 30
     -1789.15975
 11
   1650314.72097
 21
   5313230.47295
 31
     -2872.90573
 12
   1650956.75274
 22
   5312632.12971
 32
     -2264.46361
 13
   1650956.75274
 23
   5312632.12971
 33
     -2264.46361
 62
5
 70
0
  0
3DFACE
  5
3190C
  8
default
 10
   1650956.75274
 20
   5312632.12971
 30
     -2264.46361
 11
   1650314.72097
 21
   5313230.47295
 31
     -2872.90573
 12
   1650789.56549
 22
   5312587.38306
 32
     -2371.07184
 13
   1650789.56549
 23
   5312587.38306
 33
     -2371.07184
 62
5
 70
0
  0
3DFACE
  5
3190D
  8
default
 10
   1650789.56549
 20
   5312587.38306
 30
     -2371.07184
 11
   1650314.72097
 21
   5313230.47295
 31
     -2872.90573
 12
   1650588.77540
 22
   5312564.25664
 32
     -2507.01905
 13
   1650588.77540
 23
   5312564.25664
 33
     -2507.01905
 62
5
 70
0
  0
3DFACE
  5
3190E
  8
default
 10
   1650588.77540
 20
   5312564.25664
 30
     -2507.01905
 11
   1650314.72097
 21
   5313230.47295
 31
     -2872.90573
 12
   1650489.34931
 22
   5312552.85246
 32
     -2574.56637
 13
   1650489.34931
 23
   5312552.85246
 33
     -2574.56637
 62
5
 70
0
  0
3DFACE
  5
3190F
  8
default
 10
   1650489.34931
 20
   5312552.85246
 30
     -2574.56637
 11
   1650314.72097
 21
   5313230.47295
 31
     -2872.90573
 12
   1649510.25164
 22
   5312383.90124
 32
     -3225.14648
 13
   1649510.25164
 23
   5312383.90124
 33
     -3225.14648
 62
5
 70
0
  0
3DFACE
  5
31910
  8
default
 10
   1649510.25164
 20
   5312383.90124
 30
     -3225.14648
 11
   1650314.72097
 21
   5313230.47295
 31
     -2872.90573
 12
   1649207.58968
 22
   5312360.11678
 32
     -3433.58220
 13
   1649207.58968
 23
   5312360.11678
 33
     -3433.58220
 62
5
 70
0
  0
3DFACE
  5
31911
  8
default
 10
   1649207.58968
 20
   5312360.11678
 30
     -3433.58220
 11
   1650314.72097
 21
   5313230.47295
 31
     -2872.90573
 12
   1649689.23555
 22
   5314672.69748
 32
     -3690.92876
 13
   1649689.23555
 23
   5314672.69748
 33
     -3690.92876
 62
5
 70
0
  0
3DFACE
  5
31912
  8
default
 10
   1649045.01595
 20
   5312347.37589
 30
     -3545.73701
 11
   1649207.58968
 21
   5312360.11678
 31
     -3433.58220
 12
   1649689.23555
 22
   5314672.69748
 32
     -3690.92876
 13
   1649689.23555
 23
   5314672.69748
 33
     -3690.92876
 62
5
 70
0
  0
3DFACE
  5
31913
  8
default
 10
   1648921.73828
 20
   5312337.66251
 30
     -3630.49189
 11
   1649045.01595
 21
   5312347.37589
 31
     -3545.73701
 12
   1649689.23555
 22
   5314672.69748
 32
     -3690.92876
 13
   1649689.23555
 23
   5314672.69748
 33
     -3690.92876
 62
5
 70
0
  0
3DFACE
  5
31914
  8
default
 10
   1647526.84942
 20
   5314659.93756
 30
     -5218.34887
 11
   1648921.73828
 21
   5312337.66251
 31
     -3630.49189
 12
   1649689.23555
 22
   5314672.69748
 32
     -3690.92876
 13
   1649689.23555
 23
   5314672.69748
 33
     -3690.92876
 62
5
 70
0
  0
3DFACE
  5
31915
  8
default
 10
   1648835.54336
 20
   5312330.87576
 30
     -3689.77856
 11
   1648921.73828
 21
   5312337.66251
 31
     -3630.49189
 12
   1647526.84942
 22
   5314659.93756
 32
     -5218.34887
 13
   1647526.84942
 23
   5314659.93756
 33
     -5218.34887
 62
5
 70
0
  0
3DFACE
  5
31916
  8
default
 10
   1648029.65486
 20
   5312269.48680
 30
     -4244.61894
 11
   1648835.54336
 21
   5312330.87576
 31
     -3689.77856
 12
   1647526.84942
 22
   5314659.93756
 32
     -5218.34887
 13
   1647526.84942
 23
   5314659.93756
 33
     -5218.34887
 62
5
 70
0
  0
3DFACE
  5
31917
  8
default
 10
   1647019.42725
 20
   5312188.97825
 30
     -4939.22500
 11
   1648029.65486
 21
   5312269.48680
 31
     -4244.61894
 12
   1647526.84942
 22
   5314659.93756
 32
     -5218.34887
 13
   1647526.84942
 23
   5314659.93756
 33
     -5218.34887
 62
5
 70
0
  0
3DFACE
  5
31918
  8
default
 10
   1647526.84942
 20
   5314659.93756
 30
     -5218.34887
 11
   1645983.54711
 21
   5313097.17501
 31
     -5909.20656
 12
   1647019.42725
 22
   5312188.97825
 32
     -4939.22500
 13
   1647019.42725
 23
   5312188.97825
 33
     -4939.22500
 62
5
 70
0
  0
3DFACE
  5
31919
  8
default
 10
   1645921.86261
 20
   5314887.41729
 30
     -6411.86979
 11
   1645983.54711
 21
   5313097.17501
 31
     -5909.20656
 12
   1647526.84942
 22
   5314659.93756
 32
     -5218.34887
 13
   1647526.84942
 23
   5314659.93756
 33
     -5218.34887
 62
5
 70
0
  0
3DFACE
  5
3191A
  8
default
 10
   1644576.57556
 20
   5313388.58079
 30
     -6977.75494
 11
   1645983.54711
 21
   5313097.17501
 31
     -5909.20656
 12
   1645921.86261
 22
   5314887.41729
 32
     -6411.86979
 13
   1645921.86261
 23
   5314887.41729
 33
     -6411.86979
 62
5
 70
0
  0
3DFACE
  5
3191B
  8
default
 10
   1645070.24884
 20
   5312025.17351
 30
     -6276.55390
 11
   1645983.54711
 21
   5313097.17501
 31
     -5909.20656
 12
   1644576.57556
 22
   5313388.58079
 32
     -6977.75494
 13
   1644576.57556
 23
   5313388.58079
 33
     -6977.75494
 62
5
 70
0
  0
3DFACE
  5
3191C
  8
default
 10
   1645624.34458
 20
   5312069.72634
 30
     -5895.99120
 11
   1645983.54711
 21
   5313097.17501
 31
     -5909.20656
 12
   1645070.24884
 22
   5312025.17351
 32
     -6276.55390
 13
   1645070.24884
 23
   5312025.17351
 33
     -6276.55390
 62
5
 70
0
  0
3DFACE
  5
3191D
  8
default
 10
   1645944.03274
 20
   5312096.74365
 30
     -5676.76534
 11
   1645983.54711
 21
   5313097.17501
 31
     -5909.20656
 12
   1645624.34458
 22
   5312069.72634
 32
     -5895.99120
 13
   1645624.34458
 23
   5312069.72634
 33
     -5895.99120
 62
5
 70
0
  0
3DFACE
  5
3191E
  8
default
 10
   1645983.54711
 20
   5313097.17501
 30
     -5909.20656
 11
   1645944.03274
 21
   5312096.74365
 31
     -5676.76534
 12
   1646795.58567
 22
   5312171.13456
 32
     -5093.44493
 13
   1646795.58567
 23
   5312171.13456
 33
     -5093.44493
 62
5
 70
0
  0
3DFACE
  5
3191F
  8
default
 10
   1646804.15702
 20
   5312171.88020
 30
     -5087.55566
 11
   1645983.54711
 21
   5313097.17501
 31
     -5909.20656
 12
   1646795.58567
 22
   5312171.13456
 32
     -5093.44493
 13
   1646795.58567
 23
   5312171.13456
 33
     -5093.44493
 62
5
 70
0
  0
3DFACE
  5
31920
  8
default
 10
   1647019.42725
 20
   5312188.97825
 30
     -4939.22500
 11
   1645983.54711
 21
   5313097.17501
 31
     -5909.20656
 12
   1646804.15702
 22
   5312171.88020
 32
     -5087.55566
 13
   1646804.15702
 23
   5312171.88020
 33
     -5087.55566
 62
5
 70
0
  0
3DFACE
  5
31921
  8
default
 10
   1644463.15939
 20
   5311976.15919
 30
     -6692.40847
 11
   1645070.24884
 21
   5312025.17351
 31
     -6276.55390
 12
   1644576.57556
 22
   5313388.58079
 32
     -6977.75494
 13
   1644576.57556
 23
   5313388.58079
 33
     -6977.75494
 62
5
 70
0
  0
3DFACE
  5
31922
  8
default
 10
   1644291.25338
 20
   5311962.38272
 30
     -6810.72944
 11
   1644463.15939
 21
   5311976.15919
 31
     -6692.40847
 12
   1644576.57556
 22
   5313388.58079
 32
     -6977.75494
 13
   1644576.57556
 23
   5313388.58079
 33
     -6977.75494
 62
5
 70
0
  0
3DFACE
  5
31923
  8
default
 10
   1643905.78036
 20
   5311931.40396
 30
     -7076.02363
 11
   1644291.25338
 21
   5311962.38272
 31
     -6810.72944
 12
   1644576.57556
 22
   5313388.58079
 32
     -6977.75494
 13
   1644576.57556
 23
   5313388.58079
 33
     -6977.75494
 62
5
 70
0
  0
3DFACE
  5
31924
  8
default
 10
   1644576.57556
 20
   5313388.58079
 30
     -6977.75494
 11
   1642985.70605
 21
   5311848.84616
 31
     -7707.01551
 12
   1643905.78036
 22
   5311931.40396
 32
     -7076.02363
 13
   1643905.78036
 23
   5311931.40396
 33
     -7076.02363
 62
5
 70
0
  0
3DFACE
  5
31925
  8
default
 10
   1644576.57556
 20
   5313388.58079
 30
     -6977.75494
 11
   1642540.93639
 21
   5313877.94709
 31
     -8544.10809
 12
   1642985.70605
 22
   5311848.84616
 32
     -7707.01551
 13
   1642985.70605
 23
   5311848.84616
 33
     -7707.01551
 62
5
 70
0
  0
3DFACE
  5
31926
  8
default
 10
   1643807.10810
 20
   5315874.05743
 30
     -8164.86974
 11
   1642540.93639
 21
   5313877.94709
 31
     -8544.10809
 12
   1644576.57556
 22
   5313388.58079
 32
     -6977.75494
 13
   1644576.57556
 23
   5313388.58079
 33
     -6977.75494
 62
5
 70
0
  0
3DFACE
  5
31927
  8
default
 10
   1641563.34453
 20
   5316110.17242
 30
     -9816.34530
 11
   1642540.93639
 21
   5313877.94709
 31
     -8544.10809
 12
   1643807.10810
 22
   5315874.05743
 32
     -8164.86974
 13
   1643807.10810
 23
   5315874.05743
 33
     -8164.86974
 62
5
 70
0
  0
3DFACE
  5
31928
  8
default
 10
   1641563.34453
 20
   5316110.17242
 30
     -9816.34530
 11
   1641145.22483
 21
   5314246.26463
 31
     -9628.77022
 12
   1642540.93639
 22
   5313877.94709
 32
     -8544.10809
 13
   1642540.93639
 23
   5313877.94709
 33
     -8544.10809
 62
5
 70
0
  0
3DFACE
  5
31929
  8
default
 10
   1639986.17113
 20
   5315906.63103
 30
    -10876.12382
 11
   1641145.22483
 21
   5314246.26463
 31
     -9628.77022
 12
   1641563.34453
 22
   5316110.17242
 32
     -9816.34530
 13
   1641563.34453
 23
   5316110.17242
 33
     -9816.34530
 62
5
 70
0
  0
3DFACE
  5
3192A
  8
default
 10
   1639642.74921
 20
   5313964.29084
 30
    -10619.80436
 11
   1641145.22483
 21
   5314246.26463
 31
     -9628.77022
 12
   1639986.17113
 22
   5315906.63103
 32
    -10876.12382
 13
   1639986.17113
 23
   5315906.63103
 33
    -10876.12382
 62
5
 70
0
  0
3DFACE
  5
3192B
  8
default
 10
   1640876.87639
 20
   5312397.38090
 30
     -9341.79486
 11
   1641145.22483
 21
   5314246.26463
 31
     -9628.77022
 12
   1639642.74921
 22
   5313964.29084
 32
    -10619.80436
 13
   1639642.74921
 23
   5313964.29084
 33
    -10619.80436
 62
5
 70
0
  0
3DFACE
  5
3192C
  8
default
 10
   1642540.93639
 20
   5313877.94709
 30
     -8544.10809
 11
   1641145.22483
 21
   5314246.26463
 31
     -9628.77022
 12
   1640876.87639
 22
   5312397.38090
 32
     -9341.79486
 13
   1640876.87639
 23
   5312397.38090
 33
     -9341.79486
 62
5
 70
0
  0
3DFACE
  5
3192D
  8
default
 10
   1640876.87639
 20
   5312397.38090
 30
     -9341.79486
 11
   1642523.39625
 21
   5311738.25662
 31
     -8005.84639
 12
   1642540.93639
 22
   5313877.94709
 32
     -8544.10809
 13
   1642540.93639
 23
   5313877.94709
 33
     -8544.10809
 62
5
 70
0
  0
3DFACE
  5
3192E
  8
default
 10
   1642189.28023
 20
   5311634.63473
 30
     -8215.32234
 11
   1642523.39625
 21
   5311738.25662
 31
     -8005.84639
 12
   1640876.87639
 22
   5312397.38090
 32
     -9341.79486
 13
   1640876.87639
 23
   5312397.38090
 33
     -9341.79486
 62
5
 70
0
  0
3DFACE
  5
3192F
  8
default
 10
   1640876.87639
 20
   5312397.38090
 30
     -9341.79486
 11
   1641043.71620
 21
   5311435.97345
 31
     -8974.19648
 12
   1642189.28023
 22
   5311634.63473
 32
     -8215.32234
 13
   1642189.28023
 23
   5311634.63473
 33
     -8215.32234
 62
5
 70
0
  0
3DFACE
  5
31930
  8
default
 10
   1641043.71620
 20
   5311435.97345
 30
     -8974.19648
 11
   1640876.87639
 21
   5312397.38090
 31
     -9341.79486
 12
   1640736.71303
 22
   5311382.69745
 32
     -9177.40687
 13
   1640736.71303
 23
   5311382.69745
 33
     -9177.40687
 62
5
 70
0
  0
3DFACE
  5
31931
  8
default
 10
   1640876.87639
 20
   5312397.38090
 30
     -9341.79486
 11
   1640692.05660
 21
   5311359.52852
 31
     -9202.96176
 12
   1640736.71303
 22
   5311382.69745
 32
     -9177.40687
 13
   1640736.71303
 23
   5311382.69745
 33
     -9177.40687
 62
5
 70
0
  0
3DFACE
  5
31932
  8
default
 10
   1640876.87639
 20
   5312397.38090
 30
     -9341.79486
 11
   1640419.30062
 21
   5311224.03937
 31
     -9360.61206
 12
   1640692.05660
 22
   5311359.52852
 32
     -9202.96176
 13
   1640692.05660
 23
   5311359.52852
 33
     -9202.96176
 62
5
 70
0
  0
3DFACE
  5
31933
  8
default
 10
   1640876.87639
 20
   5312397.38090
 30
     -9341.79486
 11
   1639758.90143
 21
   5310898.28402
 31
     -9742.91157
 12
   1640419.30062
 22
   5311224.03937
 32
     -9360.61206
 13
   1640419.30062
 23
   5311224.03937
 33
     -9360.61206
 62
5
 70
0
  0
3DFACE
  5
31934
  8
default
 10
   1640876.87639
 20
   5312397.38090
 30
     -9341.79486
 11
   1639251.58310
 21
   5311968.56766
 31
    -10380.77481
 12
   1639758.90143
 22
   5310898.28402
 32
     -9742.91157
 13
   1639758.90143
 23
   5310898.28402
 33
     -9742.91157
 62
5
 70
0
  0
3DFACE
  5
31935
  8
default
 10
   1639642.74921
 20
   5313964.29084
 30
    -10619.80436
 11
   1639251.58310
 21
   5311968.56766
 31
    -10380.77481
 12
   1640876.87639
 22
   5312397.38090
 32
     -9341.79486
 13
   1640876.87639
 23
   5312397.38090
 33
     -9341.79486
 62
5
 70
0
  0
3DFACE
  5
31936
  8
default
 10
   1637378.34296
 20
   5313110.79854
 30
    -11998.53407
 11
   1639251.58310
 21
   5311968.56766
 31
    -10380.77481
 12
   1639642.74921
 22
   5313964.29084
 32
    -10619.80436
 13
   1639642.74921
 23
   5313964.29084
 33
    -10619.80436
 62
5
 70
0
  0
3DFACE
  5
31937
  8
default
 10
   1637017.30231
 20
   5312123.99428
 30
    -11998.15558
 11
   1639251.58310
 21
   5311968.56766
 31
    -10380.77481
 12
   1637378.34296
 22
   5313110.79854
 32
    -11998.53407
 13
   1637378.34296
 23
   5313110.79854
 33
    -11998.53407
 62
5
 70
0
  0
3DFACE
  5
31938
  8
default
 10
   1637017.30231
 20
   5312123.99428
 30
    -11998.15558
 11
   1637708.42195
 21
   5310194.75285
 31
    -11012.82431
 12
   1639251.58310
 22
   5311968.56766
 32
    -10380.77481
 13
   1639251.58310
 23
   5311968.56766
 33
    -10380.77481
 62
5
 70
0
  0
3DFACE
  5
31939
  8
default
 10
   1636655.59894
 20
   5311137.93821
 30
    -11996.59877
 11
   1637708.42195
 21
   5310194.75285
 31
    -11012.82431
 12
   1637017.30231
 22
   5312123.99428
 32
    -11998.15558
 13
   1637017.30231
 23
   5312123.99428
 33
    -11998.15558
 62
5
 70
0
  0
3DFACE
  5
3193A
  8
default
 10
   1636294.94805
 20
   5310150.69393
 30
    -11996.91328
 11
   1637708.42195
 21
   5310194.75285
 31
    -11012.82431
 12
   1636655.59894
 22
   5311137.93821
 32
    -11996.59877
 13
   1636655.59894
 23
   5311137.93821
 33
    -11996.59877
 62
5
 70
0
  0
3DFACE
  5
3193B
  8
default
 10
   1637239.33317
 20
   5309922.18236
 30
    -11272.95347
 11
   1637708.42195
 21
   5310194.75285
 31
    -11012.82431
 12
   1636294.94805
 22
   5310150.69393
 32
    -11996.91328
 13
   1636294.94805
 23
   5310150.69393
 33
    -11996.91328
 62
5
 70
0
  0
3DFACE
  5
3193C
  8
default
 10
   1637255.52495
 20
   5309927.49514
 30
    -11262.90194
 11
   1637708.42195
 21
   5310194.75285
 31
    -11012.82431
 12
   1637239.33317
 22
   5309922.18236
 32
    -11272.95347
 13
   1637239.33317
 23
   5309922.18236
 33
    -11272.95347
 62
5
 70
0
  0
3DFACE
  5
3193D
  8
default
 10
   1637708.42195
 20
   5310194.75285
 30
    -11012.82431
 11
   1637255.52495
 21
   5309927.49514
 31
    -11262.90194
 12
   1637662.73331
 22
   5310045.51511
 32
    -11006.03220
 13
   1637662.73331
 23
   5310045.51511
 33
    -11006.03220
 62
5
 70
0
  0
3DFACE
  5
3193E
  8
default
 10
   1637662.73331
 20
   5310045.51511
 30
    -11006.03220
 11
   1637765.84576
 21
   5310075.48896
 31
    -10941.44580
 12
   1637708.42195
 22
   5310194.75285
 32
    -11012.82431
 13
   1637708.42195
 23
   5310194.75285
 33
    -11012.82431
 62
5
 70
0
  0
3DFACE
  5
3193F
  8
default
 10
   1637708.42195
 20
   5310194.75285
 30
    -11012.82431
 11
   1637765.84576
 21
   5310075.48896
 31
    -10941.44580
 12
   1638009.99437
 22
   5310146.03153
 32
    -10786.31389
 13
   1638009.99437
 23
   5310146.03153
 33
    -10786.31389
 62
5
 70
0
  0
3DFACE
  5
31940
  8
default
 10
   1638433.00939
 20
   5310268.39785
 30
    -10518.26673
 11
   1637708.42195
 21
   5310194.75285
 31
    -11012.82431
 12
   1638009.99437
 22
   5310146.03153
 32
    -10786.31389
 13
   1638009.99437
 23
   5310146.03153
 33
    -10786.31389
 62
5
 70
0
  0
3DFACE
  5
31941
  8
default
 10
   1639251.58310
 20
   5311968.56766
 30
    -10380.77481
 11
   1637708.42195
 21
   5310194.75285
 31
    -11012.82431
 12
   1638433.00939
 22
   5310268.39785
 32
    -10518.26673
 13
   1638433.00939
 23
   5310268.39785
 33
    -10518.26673
 62
5
 70
0
  0
3DFACE
  5
31942
  8
default
 10
   1639251.58310
 20
   5311968.56766
 30
    -10380.77481
 11
   1638433.00939
 21
   5310268.39785
 31
    -10518.26673
 12
   1638633.07588
 22
   5310339.48057
 32
    -10394.93379
 13
   1638633.07588
 23
   5310339.48057
 33
    -10394.93379
 62
5
 70
0
  0
3DFACE
  5
31943
  8
default
 10
   1639251.58310
 20
   5311968.56766
 30
    -10380.77481
 11
   1638633.07588
 21
   5310339.48057
 31
    -10394.93379
 12
   1638745.09325
 22
   5310398.44314
 32
    -10330.87155
 13
   1638745.09325
 23
   5310398.44314
 33
    -10330.87155
 62
5
 70
0
  0
3DFACE
  5
31944
  8
default
 10
   1639251.58310
 20
   5311968.56766
 30
    -10380.77481
 11
   1638745.09325
 21
   5310398.44314
 31
    -10330.87155
 12
   1639125.78928
 22
   5310586.08202
 32
    -10109.83234
 13
   1639125.78928
 23
   5310586.08202
 33
    -10109.83234
 62
5
 70
0
  0
3DFACE
  5
31945
  8
default
 10
   1639758.90143
 20
   5310898.28402
 30
     -9742.91157
 11
   1639251.58310
 21
   5311968.56766
 31
    -10380.77481
 12
   1639125.78928
 22
   5310586.08202
 32
    -10109.83234
 13
   1639125.78928
 23
   5310586.08202
 33
    -10109.83234
 62
5
 70
0
  0
3DFACE
  5
31946
  8
default
 10
   1636840.94788
 20
   5309791.38807
 30
    -11519.81793
 11
   1637239.33317
 21
   5309922.18236
 31
    -11272.95347
 12
   1636294.94805
 22
   5310150.69393
 32
    -11996.91328
 13
   1636294.94805
 23
   5310150.69393
 33
    -11996.91328
 62
5
 70
0
  0
3DFACE
  5
31947
  8
default
 10
   1636122.48447
 20
   5309654.51565
 30
    -11990.53177
 11
   1636840.94788
 21
   5309791.38807
 31
    -11519.81793
 12
   1636294.94805
 22
   5310150.69393
 32
    -11996.91328
 13
   1636294.94805
 23
   5310150.69393
 33
    -11996.91328
 62
5
 70
0
  0
3DFACE
  5
31948
  8
default
 10
   1637378.34296
 20
   5313110.79854
 30
    -11998.53407
 11
   1639642.74921
 21
   5313964.29084
 31
    -10619.80436
 12
   1637740.16968
 22
   5314096.71534
 32
    -12000.31021
 13
   1637740.16968
 23
   5314096.71534
 33
    -12000.31021
 62
5
 70
0
  0
3DFACE
  5
31949
  8
default
 10
   1637740.16968
 20
   5314096.71534
 30
    -12000.31021
 11
   1639642.74921
 21
   5313964.29084
 31
    -10619.80436
 12
   1638100.86560
 22
   5315083.90879
 32
    -12000.07576
 13
   1638100.86560
 23
   5315083.90879
 33
    -12000.07576
 62
5
 70
0
  0
3DFACE
  5
3194A
  8
default
 10
   1639642.74921
 20
   5313964.29084
 30
    -10619.80436
 11
   1639986.17113
 21
   5315906.63103
 31
    -10876.12382
 12
   1638100.86560
 22
   5315083.90879
 32
    -12000.07576
 13
   1638100.86560
 23
   5315083.90879
 33
    -12000.07576
 62
5
 70
0
  0
3DFACE
  5
3194B
  8
default
 10
   1638100.86560
 20
   5315083.90879
 30
    -12000.07576
 11
   1639986.17113
 21
   5315906.63103
 31
    -10876.12382
 12
   1638461.50701
 22
   5316071.16379
 32
    -11999.74437
 13
   1638461.50701
 23
   5316071.16379
 33
    -11999.74437
 62
5
 70
0
  0
3DFACE
  5
3194C
  8
default
 10
   1638461.50701
 20
   5316071.16379
 30
    -11999.74437
 11
   1639986.17113
 21
   5315906.63103
 31
    -10876.12382
 12
   1638822.30882
 22
   5317058.23770
 32
    -11999.69818
 13
   1638822.30882
 23
   5317058.23770
 33
    -11999.69818
 62
5
 70
0
  0
3DFACE
  5
3194D
  8
default
 10
   1639986.17113
 20
   5315906.63103
 30
    -10876.12382
 11
   1640645.44666
 21
   5317746.68830
 31
    -10886.69551
 12
   1638822.30882
 22
   5317058.23770
 32
    -11999.69818
 13
   1638822.30882
 23
   5317058.23770
 33
    -11999.69818
 62
5
 70
0
  0
3DFACE
  5
3194E
  8
default
 10
   1641563.34453
 20
   5316110.17242
 30
     -9816.34530
 11
   1640645.44666
 21
   5317746.68830
 31
    -10886.69551
 12
   1639986.17113
 22
   5315906.63103
 32
    -10876.12382
 13
   1639986.17113
 23
   5315906.63103
 33
    -10876.12382
 62
5
 70
0
  0
3DFACE
  5
3194F
  8
default
 10
   1642171.87627
 20
   5318403.85638
 30
     -9978.10632
 11
   1640645.44666
 21
   5317746.68830
 31
    -10886.69551
 12
   1641563.34453
 22
   5316110.17242
 32
     -9816.34530
 13
   1641563.34453
 23
   5316110.17242
 33
     -9816.34530
 62
5
 70
0
  0
3DFACE
  5
31950
  8
default
 10
   1642171.87627
 20
   5318403.85638
 30
     -9978.10632
 11
   1641255.69756
 21
   5320087.01742
 31
    -11062.91535
 12
   1640645.44666
 22
   5317746.68830
 32
    -10886.69551
 13
   1640645.44666
 23
   5317746.68830
 33
    -10886.69551
 62
5
 70
0
  0
3DFACE
  5
31951
  8
default
 10
   1642587.93129
 20
   5320721.95257
 30
    -10280.98266
 11
   1641255.69756
 21
   5320087.01742
 31
    -11062.91535
 12
   1642171.87627
 22
   5318403.85638
 32
     -9978.10632
 13
   1642171.87627
 23
   5318403.85638
 33
     -9978.10632
 62
5
 70
0
  0
3DFACE
  5
31952
  8
default
 10
   1641976.49260
 20
   5322062.07811
 30
    -11061.38530
 11
   1641255.69756
 21
   5320087.01742
 31
    -11062.91535
 12
   1642587.93129
 22
   5320721.95257
 32
    -10280.98266
 13
   1642587.93129
 23
   5320721.95257
 33
    -10280.98266
 62
5
 70
0
  0
3DFACE
  5
31953
  8
default
 10
   1640628.13745
 20
   5321991.55295
 30
    -12002.70255
 11
   1641255.69756
 21
   5320087.01742
 31
    -11062.91535
 12
   1641976.49260
 22
   5322062.07811
 32
    -11061.38530
 13
   1641976.49260
 23
   5322062.07811
 33
    -11061.38530
 62
5
 70
0
  0
3DFACE
  5
31954
  8
default
 10
   1640267.16101
 20
   5321004.67620
 30
    -12002.43823
 11
   1641255.69756
 21
   5320087.01742
 31
    -11062.91535
 12
   1640628.13745
 22
   5321991.55295
 32
    -12002.70255
 13
   1640628.13745
 23
   5321991.55295
 33
    -12002.70255
 62
5
 70
0
  0
3DFACE
  5
31955
  8
default
 10
   1639906.04588
 20
   5320017.95604
 30
    -12001.92731
 11
   1641255.69756
 21
   5320087.01742
 31
    -11062.91535
 12
   1640267.16101
 22
   5321004.67620
 32
    -12002.43823
 13
   1640267.16101
 23
   5321004.67620
 33
    -12002.43823
 62
5
 70
0
  0
3DFACE
  5
31956
  8
default
 10
   1639544.91896
 20
   5319031.24916
 30
    -12001.39545
 11
   1641255.69756
 21
   5320087.01742
 31
    -11062.91535
 12
   1639906.04588
 22
   5320017.95604
 32
    -12001.92731
 13
   1639906.04588
 23
   5320017.95604
 33
    -12001.92731
 62
5
 70
0
  0
3DFACE
  5
31957
  8
default
 10
   1640645.44666
 20
   5317746.68830
 30
    -10886.69551
 11
   1641255.69756
 21
   5320087.01742
 31
    -11062.91535
 12
   1639544.91896
 22
   5319031.24916
 32
    -12001.39545
 13
   1639544.91896
 23
   5319031.24916
 33
    -12001.39545
 62
5
 70
0
  0
3DFACE
  5
31958
  8
default
 10
   1639183.60117
 20
   5318044.75780
 30
    -12000.52420
 11
   1640645.44666
 21
   5317746.68830
 31
    -10886.69551
 12
   1639544.91896
 22
   5319031.24916
 32
    -12001.39545
 13
   1639544.91896
 23
   5319031.24916
 33
    -12001.39545
 62
5
 70
0
  0
3DFACE
  5
31959
  8
default
 10
   1638822.30882
 20
   5317058.23770
 30
    -11999.69818
 11
   1640645.44666
 21
   5317746.68830
 31
    -10886.69551
 12
   1639183.60117
 22
   5318044.75780
 32
    -12000.52420
 13
   1639183.60117
 23
   5318044.75780
 33
    -12000.52420
 62
5
 70
0
  0
3DFACE
  5
3195A
  8
default
 10
   1640628.13745
 20
   5321991.55295
 30
    -12002.70255
 11
   1641976.49260
 21
   5322062.07811
 31
    -11061.38530
 12
   1640989.80154
 22
   5322977.65336
 32
    -12004.18953
 13
   1640989.80154
 23
   5322977.65336
 33
    -12004.18953
 62
5
 70
0
  0
3DFACE
  5
3195B
  8
default
 10
   1640989.80154
 20
   5322977.65336
 30
    -12004.18953
 11
   1641976.49260
 21
   5322062.07811
 31
    -11061.38530
 12
   1641350.90322
 22
   5323964.38872
 32
    -12004.67653
 13
   1641350.90322
 23
   5323964.38872
 33
    -12004.67653
 62
5
 70
0
  0
3DFACE
  5
3195C
  8
default
 10
   1641350.90322
 20
   5323964.38872
 30
    -12004.67653
 11
   1641976.49260
 21
   5322062.07811
 31
    -11061.38530
 12
   1643181.53668
 22
   5323236.83320
 32
    -10511.49263
 13
   1643181.53668
 23
   5323236.83320
 33
    -10511.49263
 62
5
 70
0
  0
3DFACE
  5
3195D
  8
default
 10
   1641350.90322
 20
   5323964.38872
 30
    -12004.67653
 11
   1643181.53668
 21
   5323236.83320
 31
    -10511.49263
 12
   1641712.11200
 22
   5324951.00317
 32
    -12005.35394
 13
   1641712.11200
 23
   5324951.00317
 33
    -12005.35394
 62
5
 70
0
  0
3DFACE
  5
3195E
  8
default
 10
   1643181.53668
 20
   5323236.83320
 30
    -10511.49263
 11
   1643472.23833
 21
   5325991.23482
 31
    -11019.23015
 12
   1641712.11200
 22
   5324951.00317
 32
    -12005.35394
 13
   1641712.11200
 23
   5324951.00317
 33
    -12005.35394
 62
5
 70
0
  0
3DFACE
  5
3195F
  8
default
 10
   1644268.50457
 20
   5324742.97753
 30
    -10134.31363
 11
   1643472.23833
 21
   5325991.23482
 31
    -11019.23015
 12
   1643181.53668
 22
   5323236.83320
 32
    -10511.49263
 13
   1643181.53668
 23
   5323236.83320
 33
    -10511.49263
 62
5
 70
0
  0
3DFACE
  5
31960
  8
default
 10
   1644881.23699
 20
   5326546.66834
 30
    -10169.19089
 11
   1643472.23833
 21
   5325991.23482
 31
    -11019.23015
 12
   1644268.50457
 22
   5324742.97753
 32
    -10134.31363
 13
   1644268.50457
 23
   5324742.97753
 33
    -10134.31363
 62
5
 70
0
  0
3DFACE
  5
31961
  8
default
 10
   1644714.68151
 20
   5328522.71426
 30
    -10797.79531
 11
   1643472.23833
 21
   5325991.23482
 31
    -11019.23015
 12
   1644881.23699
 22
   5326546.66834
 32
    -10169.19089
 13
   1644881.23699
 23
   5326546.66834
 33
    -10169.19089
 62
5
 70
0
  0
3DFACE
  5
31962
  8
default
 10
   1642795.04433
 20
   5327911.63003
 30
    -12006.15224
 11
   1643472.23833
 21
   5325991.23482
 31
    -11019.23015
 12
   1644714.68151
 22
   5328522.71426
 32
    -10797.79531
 13
   1644714.68151
 23
   5328522.71426
 33
    -10797.79531
 62
5
 70
0
  0
3DFACE
  5
31963
  8
default
 10
   1642434.07644
 20
   5326924.74363
 30
    -12005.90312
 11
   1643472.23833
 21
   5325991.23482
 31
    -11019.23015
 12
   1642795.04433
 22
   5327911.63003
 32
    -12006.15224
 13
   1642795.04433
 23
   5327911.63003
 33
    -12006.15224
 62
5
 70
0
  0
3DFACE
  5
31964
  8
default
 10
   1642073.06965
 20
   5325937.90114
 30
    -12005.58484
 11
   1643472.23833
 21
   5325991.23482
 31
    -11019.23015
 12
   1642434.07644
 22
   5326924.74363
 32
    -12005.90312
 13
   1642434.07644
 23
   5326924.74363
 33
    -12005.90312
 62
5
 70
0
  0
3DFACE
  5
31965
  8
default
 10
   1641712.11200
 20
   5324951.00317
 30
    -12005.35394
 11
   1643472.23833
 21
   5325991.23482
 31
    -11019.23015
 12
   1642073.06965
 22
   5325937.90114
 32
    -12005.58484
 13
   1642073.06965
 23
   5325937.90114
 33
    -12005.58484
 62
5
 70
0
  0
3DFACE
  5
31966
  8
default
 10
   1642795.04433
 20
   5327911.63003
 30
    -12006.15224
 11
   1644714.68151
 21
   5328522.71426
 31
    -10797.79531
 12
   1643156.10365
 22
   5328898.41321
 32
    -12006.56393
 13
   1643156.10365
 23
   5328898.41321
 33
    -12006.56393
 62
5
 70
0
  0
3DFACE
  5
31967
  8
default
 10
   1643156.10365
 20
   5328898.41321
 30
    -12006.56393
 11
   1644714.68151
 21
   5328522.71426
 31
    -10797.79531
 12
   1643517.72918
 22
   5329884.55715
 32
    -12007.98234
 13
   1643517.72918
 23
   5329884.55715
 33
    -12007.98234
 62
5
 70
0
  0
3DFACE
  5
31968
  8
default
 10
   1644714.68151
 20
   5328522.71426
 30
    -10797.79531
 11
   1645366.68116
 21
   5330697.45930
 31
    -10897.17434
 12
   1643517.72918
 22
   5329884.55715
 32
    -12007.98234
 13
   1643517.72918
 23
   5329884.55715
 33
    -12007.98234
 62
5
 70
0
  0
3DFACE
  5
31969
  8
default
 10
   1646322.52845
 20
   5329426.79980
 30
     -9895.51206
 11
   1645366.68116
 21
   5330697.45930
 31
    -10897.17434
 12
   1644714.68151
 22
   5328522.71426
 32
    -10797.79531
 13
   1644714.68151
 23
   5328522.71426
 33
    -10797.79531
 62
5
 70
0
  0
3DFACE
  5
3196A
  8
default
 10
   1646580.33330
 20
   5332128.93751
 30
    -10410.70507
 11
   1645366.68116
 21
   5330697.45930
 31
    -10897.17434
 12
   1646322.52845
 22
   5329426.79980
 32
     -9895.51206
 13
   1646322.52845
 23
   5329426.79980
 33
     -9895.51206
 62
5
 70
0
  0
3DFACE
  5
3196B
  8
default
 10
   1644599.52508
 20
   5332846.46702
 30
    -12006.76003
 11
   1645366.68116
 21
   5330697.45930
 31
    -10897.17434
 12
   1646580.33330
 22
   5332128.93751
 32
    -10410.70507
 13
   1646580.33330
 23
   5332128.93751
 33
    -10410.70507
 62
5
 70
0
  0
3DFACE
  5
3196C
  8
default
 10
   1644239.62717
 20
   5331858.37263
 30
    -12008.41337
 11
   1645366.68116
 21
   5330697.45930
 31
    -10897.17434
 12
   1644599.52508
 22
   5332846.46702
 32
    -12006.76003
 13
   1644599.52508
 23
   5332846.46702
 33
    -12006.76003
 62
5
 70
0
  0
3DFACE
  5
3196D
  8
default
 10
   1643878.09106
 20
   5330872.12774
 30
    -12007.15394
 11
   1645366.68116
 21
   5330697.45930
 31
    -10897.17434
 12
   1644239.62717
 22
   5331858.37263
 32
    -12008.41337
 13
   1644239.62717
 23
   5331858.37263
 33
    -12008.41337
 62
5
 70
0
  0
3DFACE
  5
3196E
  8
default
 10
   1643517.72918
 20
   5329884.55715
 30
    -12007.98234
 11
   1645366.68116
 21
   5330697.45930
 31
    -10897.17434
 12
   1643878.09106
 22
   5330872.12774
 32
    -12007.15394
 13
   1643878.09106
 23
   5330872.12774
 33
    -12007.15394
 62
5
 70
0
  0
3DFACE
  5
3196F
  8
default
 10
   1646580.33330
 20
   5332128.93751
 30
    -10410.70507
 11
   1646404.88860
 21
   5333880.06223
 31
    -10960.93262
 12
   1644599.52508
 22
   5332846.46702
 32
    -12006.76003
 13
   1644599.52508
 23
   5332846.46702
 33
    -12006.76003
 62
5
 70
0
  0
3DFACE
  5
31970
  8
default
 10
   1648034.11721
 20
   5335033.38025
 30
    -10242.90569
 11
   1646404.88860
 21
   5333880.06223
 31
    -10960.93262
 12
   1646580.33330
 22
   5332128.93751
 32
    -10410.70507
 13
   1646580.33330
 23
   5332128.93751
 33
    -10410.70507
 62
5
 70
0
  0
3DFACE
  5
31971
  8
default
 10
   1648034.11721
 20
   5335033.38025
 30
    -10242.90569
 11
   1646993.87258
 21
   5335639.66779
 31
    -11125.39455
 12
   1646404.88860
 22
   5333880.06223
 32
    -10960.93262
 13
   1646404.88860
 23
   5333880.06223
 33
    -10960.93262
 62
5
 70
0
  0
3DFACE
  5
31972
  8
default
 10
   1648432.39455
 20
   5337030.51524
 30
    -10781.42426
 11
   1646993.87258
 21
   5335639.66779
 31
    -11125.39455
 12
   1648034.11721
 22
   5335033.38025
 32
    -10242.90569
 13
   1648034.11721
 23
   5335033.38025
 33
    -10242.90569
 62
5
 70
0
  0
3DFACE
  5
31973
  8
default
 10
   1646845.33094
 20
   5337470.65603
 30
    -12038.49278
 11
   1646993.87258
 21
   5335639.66779
 31
    -11125.39455
 12
   1648432.39455
 22
   5337030.51524
 32
    -10781.42426
 13
   1648432.39455
 23
   5337030.51524
 33
    -10781.42426
 62
5
 70
0
  0
3DFACE
  5
31974
  8
default
 10
   1646291.39780
 20
   5336627.13772
 30
    -12001.65083
 11
   1646993.87258
 21
   5335639.66779
 31
    -11125.39455
 12
   1646845.33094
 22
   5337470.65603
 32
    -12038.49278
 13
   1646845.33094
 23
   5337470.65603
 33
    -12038.49278
 62
5
 70
0
  0
3DFACE
  5
31975
  8
default
 10
   1645786.74201
 20
   5335737.61384
 30
    -12001.69112
 11
   1646993.87258
 21
   5335639.66779
 31
    -11125.39455
 12
   1646291.39780
 22
   5336627.13772
 32
    -12001.65083
 13
   1646291.39780
 23
   5336627.13772
 33
    -12001.65083
 62
5
 70
0
  0
3DFACE
  5
31976
  8
default
 10
   1645315.93985
 20
   5334824.99876
 30
    -12002.40233
 11
   1646993.87258
 21
   5335639.66779
 31
    -11125.39455
 12
   1645786.74201
 22
   5335737.61384
 32
    -12001.69112
 13
   1645786.74201
 23
   5335737.61384
 33
    -12001.69112
 62
5
 70
0
  0
3DFACE
  5
31977
  8
default
 10
   1646404.88860
 20
   5333880.06223
 30
    -10960.93262
 11
   1646993.87258
 21
   5335639.66779
 31
    -11125.39455
 12
   1645315.93985
 22
   5334824.99876
 32
    -12002.40233
 13
   1645315.93985
 23
   5334824.99876
 33
    -12002.40233
 62
5
 70
0
  0
3DFACE
  5
31978
  8
default
 10
   1644959.08117
 20
   5333834.27398
 30
    -12006.76468
 11
   1646404.88860
 21
   5333880.06223
 31
    -10960.93262
 12
   1645315.93985
 22
   5334824.99876
 32
    -12002.40233
 13
   1645315.93985
 23
   5334824.99876
 33
    -12002.40233
 62
5
 70
0
  0
3DFACE
  5
31979
  8
default
 10
   1644599.52508
 20
   5332846.46702
 30
    -12006.76003
 11
   1646404.88860
 21
   5333880.06223
 31
    -10960.93262
 12
   1644959.08117
 22
   5333834.27398
 32
    -12006.76468
 13
   1644959.08117
 23
   5333834.27398
 33
    -12006.76468
 62
5
 70
0
  0
3DFACE
  5
3197A
  8
default
 10
   1646845.33094
 20
   5337470.65603
 30
    -12038.49278
 11
   1648432.39455
 21
   5337030.51524
 31
    -10781.42426
 12
   1647397.81342
 22
   5338323.90909
 32
    -12030.08884
 13
   1647397.81342
 23
   5338323.90909
 33
    -12030.08884
 62
5
 70
0
  0
3DFACE
  5
3197B
  8
default
 10
   1647397.81342
 20
   5338323.90909
 30
    -12030.08884
 11
   1648432.39455
 21
   5337030.51524
 31
    -10781.42426
 12
   1647967.68591
 22
   5339163.74583
 32
    -12013.30590
 13
   1647967.68591
 23
   5339163.74583
 33
    -12013.30590
 62
5
 70
0
  0
3DFACE
  5
3197C
  8
default
 10
   1648432.39455
 20
   5337030.51524
 30
    -10781.42426
 11
   1649524.21438
 21
   5338946.83540
 31
    -10943.50663
 12
   1647967.68591
 22
   5339163.74583
 32
    -12013.30590
 13
   1647967.68591
 23
   5339163.74583
 33
    -12013.30590
 62
5
 70
0
  0
3DFACE
  5
3197D
  8
default
 10
   1650413.74100
 20
   5337818.61498
 30
     -9899.17746
 11
   1649524.21438
 21
   5338946.83540
 31
    -10943.50663
 12
   1648432.39455
 22
   5337030.51524
 32
    -10781.42426
 13
   1648432.39455
 23
   5337030.51524
 33
    -10781.42426
 62
5
 70
0
  0
3DFACE
  5
3197E
  8
default
 10
   1650885.19870
 20
   5340047.84958
 30
    -10600.93323
 11
   1649524.21438
 21
   5338946.83540
 31
    -10943.50663
 12
   1650413.74100
 22
   5337818.61498
 32
     -9899.17746
 13
   1650413.74100
 23
   5337818.61498
 33
     -9899.17746
 62
5
 70
0
  0
3DFACE
  5
3197F
  8
default
 10
   1649151.41925
 20
   5340800.79466
 30
    -12013.46459
 11
   1649524.21438
 21
   5338946.83540
 31
    -10943.50663
 12
   1650885.19870
 22
   5340047.84958
 32
    -10600.93323
 13
   1650885.19870
 23
   5340047.84958
 33
    -10600.93323
 62
5
 70
0
  0
3DFACE
  5
31980
  8
default
 10
   1648560.79820
 20
   5339980.86395
 30
    -12015.60001
 11
   1649524.21438
 21
   5338946.83540
 31
    -10943.50663
 12
   1649151.41925
 22
   5340800.79466
 32
    -12013.46459
 13
   1649151.41925
 23
   5340800.79466
 33
    -12013.46459
 62
5
 70
0
  0
3DFACE
  5
31981
  8
default
 10
   1647967.68591
 20
   5339163.74583
 30
    -12013.30590
 11
   1649524.21438
 21
   5338946.83540
 31
    -10943.50663
 12
   1648560.79820
 22
   5339980.86395
 32
    -12015.60001
 13
   1648560.79820
 23
   5339980.86395
 33
    -12015.60001
 62
5
 70
0
  0
3DFACE
  5
31982
  8
default
 10
   1650885.19870
 20
   5340047.84958
 30
    -10600.93323
 11
   1650907.29280
 21
   5341393.57590
 31
    -11177.85464
 12
   1649151.41925
 22
   5340800.79466
 32
    -12013.46459
 13
   1649151.41925
 23
   5340800.79466
 33
    -12013.46459
 62
5
 70
0
  0
3DFACE
  5
31983
  8
default
 10
   1652828.71413
 20
   5341234.25934
 30
     -9934.16842
 11
   1650907.29280
 21
   5341393.57590
 31
    -11177.85464
 12
   1650885.19870
 22
   5340047.84958
 32
    -10600.93323
 13
   1650885.19870
 23
   5340047.84958
 33
    -10600.93323
 62
5
 70
0
  0
3DFACE
  5
31984
  8
default
 10
   1652413.85483
 20
   5342841.62804
 30
    -10879.72136
 11
   1650907.29280
 21
   5341393.57590
 31
    -11177.85464
 12
   1652828.71413
 22
   5341234.25934
 32
     -9934.16842
 13
   1652828.71413
 23
   5341234.25934
 33
     -9934.16842
 62
5
 70
0
  0
3DFACE
  5
31985
  8
default
 10
   1650928.39571
 20
   5343254.81392
 30
    -12016.14997
 11
   1650907.29280
 21
   5341393.57590
 31
    -11177.85464
 12
   1652413.85483
 22
   5342841.62804
 32
    -10879.72136
 13
   1652413.85483
 23
   5342841.62804
 33
    -10879.72136
 62
5
 70
0
  0
3DFACE
  5
31986
  8
default
 10
   1650336.38660
 20
   5342436.45032
 30
    -12015.81737
 11
   1650907.29280
 21
   5341393.57590
 31
    -11177.85464
 12
   1650928.39571
 22
   5343254.81392
 32
    -12016.14997
 13
   1650928.39571
 23
   5343254.81392
 33
    -12016.14997
 62
5
 70
0
  0
3DFACE
  5
31987
  8
default
 10
   1649744.62074
 20
   5341617.81208
 30
    -12015.91728
 11
   1650907.29280
 21
   5341393.57590
 31
    -11177.85464
 12
   1650336.38660
 22
   5342436.45032
 32
    -12015.81737
 13
   1650336.38660
 23
   5342436.45032
 33
    -12015.81737
 62
5
 70
0
  0
3DFACE
  5
31988
  8
default
 10
   1649151.41925
 20
   5340800.79466
 30
    -12013.46459
 11
   1650907.29280
 21
   5341393.57590
 31
    -11177.85464
 12
   1649744.62074
 22
   5341617.81208
 32
    -12015.91728
 13
   1649744.62074
 23
   5341617.81208
 33
    -12015.91728
 62
5
 70
0
  0
3DFACE
  5
31989
  8
default
 10
   1652413.85483
 20
   5342841.62804
 30
    -10879.72136
 11
   1652037.60432
 21
   5343769.70045
 31
    -11491.59460
 12
   1650928.39571
 22
   5343254.81392
 32
    -12016.14997
 13
   1650928.39571
 23
   5343254.81392
 33
    -12016.14997
 62
5
 70
0
  0
3DFACE
  5
3198A
  8
default
 10
   1652852.58451
 20
   5343879.26719
 30
    -11272.25177
 11
   1652037.60432
 21
   5343769.70045
 31
    -11491.59460
 12
   1652413.85483
 22
   5342841.62804
 32
    -10879.72136
 13
   1652413.85483
 23
   5342841.62804
 33
    -10879.72136
 62
5
 70
0
  0
3DFACE
  5
3198B
  8
default
 10
   1652661.50423
 20
   5344257.29286
 30
    -11699.50527
 11
   1652037.60432
 21
   5343769.70045
 31
    -11491.59460
 12
   1652852.58451
 22
   5343879.26719
 32
    -11272.25177
 13
   1652852.58451
 23
   5343879.26719
 33
    -11272.25177
 62
5
 70
0
  0
3DFACE
  5
3198C
  8
default
 10
   1652661.50423
 20
   5344257.29286
 30
    -11699.50527
 11
   1652216.28121
 21
   5344202.18029
 31
    -11743.09976
 12
   1652037.60432
 22
   5343769.70045
 32
    -11491.59460
 13
   1652037.60432
 23
   5343769.70045
 33
    -11491.59460
 62
5
 70
0
  0
3DFACE
  5
3198D
  8
default
 10
   1652577.07924
 20
   5344434.90656
 30
    -11938.32866
 11
   1652216.28121
 21
   5344202.18029
 31
    -11743.09976
 12
   1652661.50423
 22
   5344257.29286
 32
    -11699.50527
 13
   1652661.50423
 23
   5344257.29286
 33
    -11699.50527
 62
5
 70
0
  0
3DFACE
  5
3198E
  8
default
 10
   1652410.54253
 20
   5344552.74119
 30
    -12167.82020
 11
   1652216.28121
 21
   5344202.18029
 31
    -11743.09976
 12
   1652577.07924
 22
   5344434.90656
 32
    -11938.32866
 13
   1652577.07924
 23
   5344434.90656
 33
    -11938.32866
 62
5
 70
0
  0
3DFACE
  5
3198F
  8
default
 10
   1651917.58975
 20
   5344367.01975
 30
    -12007.01199
 11
   1652216.28121
 21
   5344202.18029
 31
    -11743.09976
 12
   1652410.54253
 22
   5344552.74119
 32
    -12167.82020
 13
   1652410.54253
 23
   5344552.74119
 33
    -12167.82020
 62
5
 70
0
  0
3DFACE
  5
31990
  8
default
 10
   1651514.89448
 20
   5344079.39863
 30
    -12006.68498
 11
   1652216.28121
 21
   5344202.18029
 31
    -11743.09976
 12
   1651917.58975
 22
   5344367.01975
 32
    -12007.01199
 13
   1651917.58975
 23
   5344367.01975
 33
    -12007.01199
 62
5
 70
0
  0
3DFACE
  5
31991
  8
default
 10
   1652037.60432
 20
   5343769.70045
 30
    -11491.59460
 11
   1652216.28121
 21
   5344202.18029
 31
    -11743.09976
 12
   1651514.89448
 22
   5344079.39863
 32
    -12006.68498
 13
   1651514.89448
 23
   5344079.39863
 33
    -12006.68498
 62
5
 70
0
  0
3DFACE
  5
31992
  8
default
 10
   1650928.39571
 20
   5343254.81392
 30
    -12016.14997
 11
   1652037.60432
 21
   5343769.70045
 31
    -11491.59460
 12
   1651514.89448
 22
   5344079.39863
 32
    -12006.68498
 13
   1651514.89448
 23
   5344079.39863
 33
    -12006.68498
 62
5
 70
0
  0
3DFACE
  5
31993
  8
default
 10
   1652410.54253
 20
   5344552.74119
 30
    -12167.82020
 11
   1652577.07924
 21
   5344434.90656
 31
    -11938.32866
 12
   1652614.45105
 22
   5344618.36170
 32
    -12213.88112
 13
   1652614.45105
 23
   5344618.36170
 33
    -12213.88112
 62
5
 70
0
  0
3DFACE
  5
31994
  8
default
 10
   1654203.76917
 20
   5343342.83324
 30
    -10455.38164
 11
   1652852.58451
 21
   5343879.26719
 31
    -11272.25177
 12
   1652413.85483
 22
   5342841.62804
 32
    -10879.72136
 13
   1652413.85483
 23
   5342841.62804
 33
    -10879.72136
 62
5
 70
0
  0
3DFACE
  5
31995
  8
default
 10
   1654203.76917
 20
   5343342.83324
 30
    -10455.38164
 11
   1652413.85483
 21
   5342841.62804
 31
    -10879.72136
 12
   1652828.71413
 22
   5341234.25934
 32
     -9934.16842
 13
   1652828.71413
 23
   5341234.25934
 33
     -9934.16842
 62
5
 70
0
  0
3DFACE
  5
31996
  8
default
 10
   1652828.71413
 20
   5341234.25934
 30
     -9934.16842
 11
   1654329.07001
 21
   5341953.53212
 31
     -9312.17631
 12
   1654203.76917
 22
   5343342.83324
 32
    -10455.38164
 13
   1654203.76917
 23
   5343342.83324
 33
    -10455.38164
 62
5
 70
0
  0
3DFACE
  5
31997
  8
default
 10
   1654426.20179
 20
   5340334.67373
 30
     -8564.88740
 11
   1654329.07001
 21
   5341953.53212
 31
     -9312.17631
 12
   1652828.71413
 22
   5341234.25934
 32
     -9934.16842
 13
   1652828.71413
 23
   5341234.25934
 33
     -9934.16842
 62
5
 70
0
  0
3DFACE
  5
31998
  8
default
 10
   1656062.53799
 20
   5342312.11982
 30
     -8997.92935
 11
   1654329.07001
 21
   5341953.53212
 31
     -9312.17631
 12
   1654426.20179
 22
   5340334.67373
 32
     -8564.88740
 13
   1654426.20179
 23
   5340334.67373
 33
     -8564.88740
 62
5
 70
0
  0
3DFACE
  5
31999
  8
default
 10
   1654203.76917
 20
   5343342.83324
 30
    -10455.38164
 11
   1654329.07001
 21
   5341953.53212
 31
     -9312.17631
 12
   1656062.53799
 22
   5342312.11982
 32
     -8997.92935
 13
   1656062.53799
 23
   5342312.11982
 33
     -8997.92935
 62
5
 70
0
  0
3DFACE
  5
3199A
  8
default
 10
   1656062.53799
 20
   5342312.11982
 30
     -8997.92935
 11
   1656298.46901
 21
   5343707.29728
 31
    -10505.89935
 12
   1654203.76917
 22
   5343342.83324
 32
    -10455.38164
 13
   1654203.76917
 23
   5343342.83324
 33
    -10455.38164
 62
5
 70
0
  0
3DFACE
  5
3199B
  8
default
 10
   1659032.92886
 20
   5343019.04982
 30
     -8972.84242
 11
   1656298.46901
 21
   5343707.29728
 31
    -10505.89935
 12
   1656062.53799
 22
   5342312.11982
 32
     -8997.92935
 13
   1656062.53799
 23
   5342312.11982
 33
     -8997.92935
 62
5
 70
0
  0
3DFACE
  5
3199C
  8
default
 10
   1658312.96230
 20
   5344323.68132
 30
    -10731.66665
 11
   1656298.46901
 21
   5343707.29728
 31
    -10505.89935
 12
   1659032.92886
 22
   5343019.04982
 32
     -8972.84242
 13
   1659032.92886
 23
   5343019.04982
 33
     -8972.84242
 62
5
 70
0
  0
3DFACE
  5
3199D
  8
default
 10
   1658312.96230
 20
   5344323.68132
 30
    -10731.66665
 11
   1659032.92886
 21
   5343019.04982
 31
     -8972.84242
 12
   1661170.94124
 22
   5343989.26537
 32
     -9255.04610
 13
   1661170.94124
 23
   5343989.26537
 33
     -9255.04610
 62
5
 70
0
  0
3DFACE
  5
3199E
  8
default
 10
   1661170.94124
 20
   5343989.26537
 30
     -9255.04610
 11
   1659032.92886
 21
   5343019.04982
 31
     -8972.84242
 12
   1660498.61229
 22
   5341987.55508
 32
     -7324.47449
 13
   1660498.61229
 23
   5341987.55508
 33
     -7324.47449
 62
5
 70
0
  0
3DFACE
  5
3199F
  8
default
 10
   1660498.61229
 20
   5341987.55508
 30
     -7324.47449
 11
   1661883.35613
 21
   5343084.14107
 31
     -7854.67216
 12
   1661170.94124
 22
   5343989.26537
 32
     -9255.04610
 13
   1661170.94124
 23
   5343989.26537
 33
     -9255.04610
 62
5
 70
0
  0
3DFACE
  5
319A0
  8
default
 10
   1663104.80933
 20
   5342602.30202
 30
     -6634.54810
 11
   1661883.35613
 21
   5343084.14107
 31
     -7854.67216
 12
   1660498.61229
 22
   5341987.55508
 32
     -7324.47449
 13
   1660498.61229
 23
   5341987.55508
 33
     -7324.47449
 62
5
 70
0
  0
3DFACE
  5
319A1
  8
default
 10
   1660498.61229
 20
   5341987.55508
 30
     -7324.47449
 11
   1661753.78590
 21
   5340997.25809
 31
     -5774.71736
 12
   1663104.80933
 22
   5342602.30202
 32
     -6634.54810
 13
   1663104.80933
 23
   5342602.30202
 33
     -6634.54810
 62
5
 70
0
  0
3DFACE
  5
319A2
  8
default
 10
   1659039.68306
 20
   5339987.37504
 30
     -5926.86334
 11
   1661753.78590
 21
   5340997.25809
 31
     -5774.71736
 12
   1660498.61229
 22
   5341987.55508
 32
     -7324.47449
 13
   1660498.61229
 23
   5341987.55508
 33
     -7324.47449
 62
5
 70
0
  0
3DFACE
  5
319A3
  8
default
 10
   1661397.93547
 20
   5339259.44618
 30
     -4389.21923
 11
   1661753.78590
 21
   5340997.25809
 31
     -5774.71736
 12
   1659039.68306
 22
   5339987.37504
 32
     -5926.86334
 13
   1659039.68306
 23
   5339987.37504
 33
     -5926.86334
 62
5
 70
0
  0
3DFACE
  5
319A4
  8
default
 10
   1661397.93547
 20
   5339259.44618
 30
     -4389.21923
 11
   1663388.92036
 21
   5341449.79562
 31
     -5286.80410
 12
   1661753.78590
 22
   5340997.25809
 32
     -5774.71736
 13
   1661753.78590
 23
   5340997.25809
 33
     -5774.71736
 62
5
 70
0
  0
3DFACE
  5
319A5
  8
default
 10
   1664022.62285
 20
   5340442.91608
 30
     -3963.37823
 11
   1663388.92036
 21
   5341449.79562
 31
     -5286.80410
 12
   1661397.93547
 22
   5339259.44618
 32
     -4389.21923
 13
   1661397.93547
 23
   5339259.44618
 33
     -4389.21923
 62
5
 70
0
  0
3DFACE
  5
319A6
  8
default
 10
   1661753.78590
 20
   5340997.25809
 30
     -5774.71736
 11
   1663388.92036
 21
   5341449.79562
 31
     -5286.80410
 12
   1663104.80933
 22
   5342602.30202
 32
     -6634.54810
 13
   1663104.80933
 23
   5342602.30202
 33
     -6634.54810
 62
5
 70
0
  0
3DFACE
  5
319A7
  8
default
 10
   1659024.31084
 20
   5337399.18868
 30
     -4453.30242
 11
   1661397.93547
 21
   5339259.44618
 31
     -4389.21923
 12
   1659039.68306
 22
   5339987.37504
 32
     -5926.86334
 13
   1659039.68306
 23
   5339987.37504
 33
     -5926.86334
 62
5
 70
0
  0
3DFACE
  5
319A8
  8
default
 10
   1661407.46806
 20
   5336860.92600
 30
     -2754.41638
 11
   1661397.93547
 21
   5339259.44618
 31
     -4389.21923
 12
   1659024.31084
 22
   5337399.18868
 32
     -4453.30242
 13
   1659024.31084
 23
   5337399.18868
 33
     -4453.30242
 62
5
 70
0
  0
3DFACE
  5
319A9
  8
default
 10
   1659024.31084
 20
   5337399.18868
 30
     -4453.30242
 11
   1659602.63912
 21
   5335494.17395
 31
     -3263.94042
 12
   1661407.46806
 22
   5336860.92600
 32
     -2754.41638
 13
   1661407.46806
 23
   5336860.92600
 33
     -2754.41638
 62
5
 70
0
  0
3DFACE
  5
319AA
  8
default
 10
   1659024.31084
 20
   5337399.18868
 30
     -4453.30242
 11
   1657698.25202
 21
   5335715.99497
 31
     -4524.05063
 12
   1659602.63912
 22
   5335494.17395
 32
     -3263.94042
 13
   1659602.63912
 23
   5335494.17395
 33
     -3263.94042
 62
5
 70
0
  0
3DFACE
  5
319AB
  8
default
 10
   1659024.31084
 20
   5337399.18868
 30
     -4453.30242
 11
   1657747.74109
 21
   5338421.25408
 31
     -5684.76558
 12
   1657698.25202
 22
   5335715.99497
 32
     -4524.05063
 13
   1657698.25202
 23
   5335715.99497
 33
     -4524.05063
 62
5
 70
0
  0
3DFACE
  5
319AC
  8
default
 10
   1659039.68306
 20
   5339987.37504
 30
     -5926.86334
 11
   1657747.74109
 21
   5338421.25408
 31
     -5684.76558
 12
   1659024.31084
 22
   5337399.18868
 32
     -4453.30242
 13
   1659024.31084
 23
   5337399.18868
 33
     -4453.30242
 62
5
 70
0
  0
3DFACE
  5
319AD
  8
default
 10
   1656162.01876
 20
   5339689.90036
 30
     -7222.28658
 11
   1657747.74109
 21
   5338421.25408
 31
     -5684.76558
 12
   1659039.68306
 22
   5339987.37504
 32
     -5926.86334
 13
   1659039.68306
 23
   5339987.37504
 33
     -5926.86334
 62
5
 70
0
  0
3DFACE
  5
319AE
  8
default
 10
   1656422.69432
 20
   5336842.86434
 30
     -5798.47434
 11
   1657747.74109
 21
   5338421.25408
 31
     -5684.76558
 12
   1656162.01876
 22
   5339689.90036
 32
     -7222.28658
 13
   1656162.01876
 23
   5339689.90036
 33
     -7222.28658
 62
5
 70
0
  0
3DFACE
  5
319AF
  8
default
 10
   1657698.25202
 20
   5335715.99497
 30
     -4524.05063
 11
   1657747.74109
 21
   5338421.25408
 31
     -5684.76558
 12
   1656422.69432
 22
   5336842.86434
 32
     -5798.47434
 13
   1656422.69432
 23
   5336842.86434
 33
     -5798.47434
 62
5
 70
0
  0
3DFACE
  5
319B0
  8
default
 10
   1656025.05038
 20
   5334473.37732
 30
     -4995.15230
 11
   1657698.25202
 21
   5335715.99497
 31
     -4524.05063
 12
   1656422.69432
 22
   5336842.86434
 32
     -5798.47434
 13
   1656422.69432
 23
   5336842.86434
 33
     -5798.47434
 62
5
 70
0
  0
3DFACE
  5
319B1
  8
default
 10
   1658000.13194
 20
   5333828.54947
 30
     -3509.41758
 11
   1657698.25202
 21
   5335715.99497
 31
     -4524.05063
 12
   1656025.05038
 22
   5334473.37732
 32
     -4995.15230
 13
   1656025.05038
 23
   5334473.37732
 33
     -4995.15230
 62
5
 70
0
  0
3DFACE
  5
319B2
  8
default
 10
   1659602.63912
 20
   5335494.17395
 30
     -3263.94042
 11
   1657698.25202
 21
   5335715.99497
 31
     -4524.05063
 12
   1658000.13194
 22
   5333828.54947
 32
     -3509.41758
 13
   1658000.13194
 23
   5333828.54947
 33
     -3509.41758
 62
5
 70
0
  0
3DFACE
  5
319B3
  8
default
 10
   1660693.43708
 20
   5333888.45032
 30
     -1890.09629
 11
   1659602.63912
 21
   5335494.17395
 31
     -3263.94042
 12
   1658000.13194
 22
   5333828.54947
 32
     -3509.41758
 13
   1658000.13194
 23
   5333828.54947
 33
     -3509.41758
 62
5
 70
0
  0
3DFACE
  5
319B4
  8
default
 10
   1661407.46806
 20
   5336860.92600
 30
     -2754.41638
 11
   1659602.63912
 21
   5335494.17395
 31
     -3263.94042
 12
   1660693.43708
 22
   5333888.45032
 32
     -1890.09629
 13
   1660693.43708
 23
   5333888.45032
 33
     -1890.09629
 62
5
 70
0
  0
3DFACE
  5
319B5
  8
default
 10
   1660693.43708
 20
   5333888.45032
 30
     -1890.09629
 11
   1662519.01390
 21
   5335297.47999
 31
     -1396.01684
 12
   1661407.46806
 22
   5336860.92600
 32
     -2754.41638
 13
   1661407.46806
 23
   5336860.92600
 33
     -2754.41638
 62
5
 70
0
  0
3DFACE
  5
319B6
  8
default
 10
   1658766.48102
 20
   5331224.18470
 30
     -1889.52042
 11
   1660693.43708
 21
   5333888.45032
 31
     -1890.09629
 12
   1658000.13194
 22
   5333828.54947
 32
     -3509.41758
 13
   1658000.13194
 23
   5333828.54947
 33
     -3509.41758
 62
5
 70
0
  0
3DFACE
  5
319B7
  8
default
 10
   1658766.48102
 20
   5331224.18470
 30
     -1889.52042
 11
   1660495.74527
 21
   5331992.58883
 31
     -1176.74911
 12
   1660693.43708
 22
   5333888.45032
 32
     -1890.09629
 13
   1660693.43708
 23
   5333888.45032
 33
     -1890.09629
 62
5
 70
0
  0
3DFACE
  5
319B8
  8
default
 10
   1658000.13194
 20
   5333828.54947
 30
     -3509.41758
 11
   1657241.58187
 21
   5331908.65521
 31
     -3123.41161
 12
   1658766.48102
 22
   5331224.18470
 32
     -1889.52042
 13
   1658766.48102
 23
   5331224.18470
 33
     -1889.52042
 62
5
 70
0
  0
3DFACE
  5
319B9
  8
default
 10
   1655520.17632
 20
   5332095.66337
 30
     -4271.58373
 11
   1657241.58187
 21
   5331908.65521
 31
     -3123.41161
 12
   1658000.13194
 22
   5333828.54947
 32
     -3509.41758
 13
   1658000.13194
 23
   5333828.54947
 33
     -3509.41758
 62
5
 70
0
  0
3DFACE
  5
319BA
  8
default
 10
   1655520.17632
 20
   5332095.66337
 30
     -4271.58373
 11
   1655243.58515
 21
   5330382.91702
 31
     -3831.42463
 12
   1657241.58187
 22
   5331908.65521
 32
     -3123.41161
 13
   1657241.58187
 23
   5331908.65521
 33
     -3123.41161
 62
5
 70
0
  0
3DFACE
  5
319BB
  8
default
 10
   1654006.99259
 20
   5331037.73986
 30
     -4883.63574
 11
   1655243.58515
 21
   5330382.91702
 31
     -3831.42463
 12
   1655520.17632
 22
   5332095.66337
 32
     -4271.58373
 13
   1655520.17632
 23
   5332095.66337
 33
     -4271.58373
 62
5
 70
0
  0
3DFACE
  5
319BC
  8
default
 10
   1653545.70298
 20
   5329094.34015
 30
     -4688.30922
 11
   1655243.58515
 21
   5330382.91702
 31
     -3831.42463
 12
   1654006.99259
 22
   5331037.73986
 32
     -4883.63574
 13
   1654006.99259
 23
   5331037.73986
 33
     -4883.63574
 62
5
 70
0
  0
3DFACE
  5
319BD
  8
default
 10
   1654820.95672
 20
   5327657.85036
 30
     -3415.81344
 11
   1655243.58515
 21
   5330382.91702
 31
     -3831.42463
 12
   1653545.70298
 22
   5329094.34015
 32
     -4688.30922
 13
   1653545.70298
 23
   5329094.34015
 33
     -4688.30922
 62
5
 70
0
  0
3DFACE
  5
319BE
  8
default
 10
   1656308.63144
 20
   5329423.26803
 30
     -2816.71783
 11
   1655243.58515
 21
   5330382.91702
 31
     -3831.42463
 12
   1654820.95672
 22
   5327657.85036
 32
     -3415.81344
 13
   1654820.95672
 23
   5327657.85036
 33
     -3415.81344
 62
5
 70
0
  0
3DFACE
  5
319BF
  8
default
 10
   1657241.58187
 20
   5331908.65521
 30
     -3123.41161
 11
   1655243.58515
 21
   5330382.91702
 31
     -3831.42463
 12
   1656308.63144
 22
   5329423.26803
 32
     -2816.71783
 13
   1656308.63144
 23
   5329423.26803
 33
     -2816.71783
 62
5
 70
0
  0
3DFACE
  5
319C0
  8
default
 10
   1658766.48102
 20
   5331224.18470
 30
     -1889.52042
 11
   1657241.58187
 21
   5331908.65521
 31
     -3123.41161
 12
   1656308.63144
 22
   5329423.26803
 32
     -2816.71783
 13
   1656308.63144
 23
   5329423.26803
 33
     -2816.71783
 62
5
 70
0
  0
3DFACE
  5
319C1
  8
default
 10
   1656308.63144
 20
   5329423.26803
 30
     -2816.71783
 11
   1654820.95672
 21
   5327657.85036
 31
     -3415.81344
 12
   1656022.93851
 22
   5326131.82979
 32
     -2169.29702
 13
   1656022.93851
 23
   5326131.82979
 33
     -2169.29702
 62
5
 70
0
  0
3DFACE
  5
319C2
  8
default
 10
   1656022.93851
 20
   5326131.82979
 30
     -2169.29702
 11
   1657678.44175
 21
   5327908.41566
 31
     -1462.66604
 12
   1656308.63144
 22
   5329423.26803
 32
     -2816.71783
 13
   1656308.63144
 23
   5329423.26803
 33
     -2816.71783
 62
5
 70
0
  0
3DFACE
  5
319C3
  8
default
 10
   1654820.95672
 20
   5327657.85036
 30
     -3415.81344
 11
   1654640.84091
 21
   5324820.70821
 31
     -2811.76152
 12
   1656022.93851
 22
   5326131.82979
 32
     -2169.29702
 13
   1656022.93851
 23
   5326131.82979
 33
     -2169.29702
 62
5
 70
0
  0
3DFACE
  5
319C4
  8
default
 10
   1653344.88526
 20
   5325701.49647
 30
     -3958.60419
 11
   1654640.84091
 21
   5324820.70821
 31
     -2811.76152
 12
   1654820.95672
 22
   5327657.85036
 32
     -3415.81344
 13
   1654820.95672
 23
   5327657.85036
 33
     -3415.81344
 62
5
 70
0
  0
3DFACE
  5
319C5
  8
default
 10
   1653046.69173
 20
   5323308.66728
 30
     -3552.53579
 11
   1654640.84091
 21
   5324820.70821
 31
     -2811.76152
 12
   1653344.88526
 22
   5325701.49647
 32
     -3958.60419
 13
   1653344.88526
 23
   5325701.49647
 33
     -3958.60419
 62
5
 70
0
  0
3DFACE
  5
319C6
  8
default
 10
   1654883.85791
 20
   5322943.19507
 30
     -2152.06302
 11
   1654640.84091
 21
   5324820.70821
 31
     -2811.76152
 12
   1653046.69173
 22
   5323308.66728
 32
     -3552.53579
 13
   1653046.69173
 23
   5323308.66728
 33
     -3552.53579
 62
5
 70
0
  0
3DFACE
  5
319C7
  8
default
 10
   1656556.08274
 20
   5324150.41984
 30
     -1286.31598
 11
   1654640.84091
 21
   5324820.70821
 31
     -2811.76152
 12
   1654883.85791
 22
   5322943.19507
 32
     -2152.06302
 13
   1654883.85791
 23
   5322943.19507
 33
     -2152.06302
 62
5
 70
0
  0
3DFACE
  5
319C8
  8
default
 10
   1656022.93851
 20
   5326131.82979
 30
     -2169.29702
 11
   1654640.84091
 21
   5324820.70821
 31
     -2811.76152
 12
   1656556.08274
 22
   5324150.41984
 32
     -1286.31598
 13
   1656556.08274
 23
   5324150.41984
 33
     -1286.31598
 62
5
 70
0
  0
3DFACE
  5
319C9
  8
default
 10
   1653046.69173
 20
   5323308.66728
 30
     -3552.53579
 11
   1654394.19137
 21
   5320752.45702
 31
     -1934.51133
 12
   1654883.85791
 22
   5322943.19507
 32
     -2152.06302
 13
   1654883.85791
 23
   5322943.19507
 33
     -2152.06302
 62
5
 70
0
  0
3DFACE
  5
319CA
  8
default
 10
   1653046.69173
 20
   5323308.66728
 30
     -3552.53579
 11
   1652087.79398
 21
   5321688.56519
 31
     -3808.65247
 12
   1654394.19137
 22
   5320752.45702
 32
     -1934.51133
 13
   1654394.19137
 23
   5320752.45702
 33
     -1934.51133
 62
5
 70
0
  0
3DFACE
  5
319CB
  8
default
 10
   1651099.37999
 20
   5322854.63801
 30
     -4809.05802
 11
   1652087.79398
 21
   5321688.56519
 31
     -3808.65247
 12
   1653046.69173
 22
   5323308.66728
 32
     -3552.53579
 13
   1653046.69173
 23
   5323308.66728
 33
     -3552.53579
 62
5
 70
0
  0
3DFACE
  5
319CC
  8
default
 10
   1650474.49549
 20
   5320474.74118
 30
     -4638.85460
 11
   1652087.79398
 21
   5321688.56519
 31
     -3808.65247
 12
   1651099.37999
 22
   5322854.63801
 32
     -4809.05802
 13
   1651099.37999
 23
   5322854.63801
 33
     -4809.05802
 62
5
 70
0
  0
3DFACE
  5
319CD
  8
default
 10
   1652618.31023
 20
   5320094.23167
 30
     -3020.10896
 11
   1652087.79398
 21
   5321688.56519
 31
     -3808.65247
 12
   1650474.49549
 22
   5320474.74118
 32
     -4638.85460
 13
   1650474.49549
 23
   5320474.74118
 33
     -4638.85460
 62
5
 70
0
  0
3DFACE
  5
319CE
  8
default
 10
   1654394.19137
 20
   5320752.45702
 30
     -1934.51133
 11
   1652087.79398
 21
   5321688.56519
 31
     -3808.65247
 12
   1652618.31023
 22
   5320094.23167
 32
     -3020.10896
 13
   1652618.31023
 23
   5320094.23167
 33
     -3020.10896
 62
5
 70
0
  0
3DFACE
  5
319CF
  8
default
 10
   1654135.68943
 20
   5318553.58452
 30
     -1547.68831
 11
   1654394.19137
 21
   5320752.45702
 31
     -1934.51133
 12
   1652618.31023
 22
   5320094.23167
 32
     -3020.10896
 13
   1652618.31023
 23
   5320094.23167
 33
     -3020.10896
 62
5
 70
0
  0
3DFACE
  5
319D0
  8
default
 10
   1652618.31023
 20
   5320094.23167
 30
     -3020.10896
 11
   1651801.46248
 21
   5318141.67075
 31
     -3094.33489
 12
   1654135.68943
 22
   5318553.58452
 32
     -1547.68831
 13
   1654135.68943
 23
   5318553.58452
 33
     -1547.68831
 62
5
 70
0
  0
3DFACE
  5
319D1
  8
default
 10
   1650474.49549
 20
   5320474.74118
 30
     -4638.85460
 11
   1651801.46248
 21
   5318141.67075
 31
     -3094.33489
 12
   1652618.31023
 22
   5320094.23167
 32
     -3020.10896
 13
   1652618.31023
 23
   5320094.23167
 33
     -3020.10896
 62
5
 70
0
  0
3DFACE
  5
319D2
  8
default
 10
   1650140.61586
 20
   5318070.90071
 30
     -4251.40221
 11
   1651801.46248
 21
   5318141.67075
 31
     -3094.33489
 12
   1650474.49549
 22
   5320474.74118
 32
     -4638.85460
 13
   1650474.49549
 23
   5320474.74118
 33
     -4638.85460
 62
5
 70
0
  0
3DFACE
  5
319D3
  8
default
 10
   1650533.57654
 20
   5316383.80978
 30
     -3534.46638
 11
   1651801.46248
 21
   5318141.67075
 31
     -3094.33489
 12
   1650140.61586
 22
   5318070.90071
 32
     -4251.40221
 13
   1650140.61586
 23
   5318070.90071
 33
     -4251.40221
 62
5
 70
0
  0
3DFACE
  5
319D4
  8
default
 10
   1652514.60479
 20
   5316459.96064
 30
     -2153.19288
 11
   1651801.46248
 21
   5318141.67075
 31
     -3094.33489
 12
   1650533.57654
 22
   5316383.80978
 32
     -3534.46638
 13
   1650533.57654
 23
   5316383.80978
 33
     -3534.46638
 62
5
 70
0
  0
3DFACE
  5
319D5
  8
default
 10
   1654135.68943
 20
   5318553.58452
 30
     -1547.68831
 11
   1651801.46248
 21
   5318141.67075
 31
     -3094.33489
 12
   1652514.60479
 22
   5316459.96064
 32
     -2153.19288
 13
   1652514.60479
 23
   5316459.96064
 33
     -2153.19288
 62
5
 70
0
  0
3DFACE
  5
319D6
  8
default
 10
   1652514.60479
 20
   5316459.96064
 30
     -2153.19288
 11
   1650533.57654
 21
   5316383.80978
 31
     -3534.46638
 12
   1651286.64613
 22
   5314952.93125
 32
     -2631.75083
 13
   1651286.64613
 23
   5314952.93125
 33
     -2631.75083
 62
5
 70
0
  0
3DFACE
  5
319D7
  8
default
 10
   1652514.60479
 20
   5316459.96064
 30
     -2153.19288
 11
   1651286.64613
 21
   5314952.93125
 31
     -2631.75083
 12
   1652449.61210
 22
   5313878.47737
 32
     -1531.37609
 13
   1652449.61210
 23
   5313878.47737
 33
     -1531.37609
 62
5
 70
0
  0
3DFACE
  5
319D8
  8
default
 10
   1651286.64613
 20
   5314952.93125
 30
     -2631.75083
 11
   1650314.72097
 21
   5313230.47295
 31
     -2872.90573
 12
   1652449.61210
 22
   5313878.47737
 32
     -1531.37609
 13
   1652449.61210
 23
   5313878.47737
 33
     -1531.37609
 62
5
 70
0
  0
3DFACE
  5
319D9
  8
default
 10
   1649689.23555
 20
   5314672.69748
 30
     -3690.92876
 11
   1650314.72097
 21
   5313230.47295
 31
     -2872.90573
 12
   1651286.64613
 22
   5314952.93125
 32
     -2631.75083
 13
   1651286.64613
 23
   5314952.93125
 33
     -2631.75083
 62
5
 70
0
  0
3DFACE
  5
319DA
  8
default
 10
   1651286.64613
 20
   5314952.93125
 30
     -2631.75083
 11
   1650533.57654
 21
   5316383.80978
 31
     -3534.46638
 12
   1649689.23555
 22
   5314672.69748
 32
     -3690.92876
 13
   1649689.23555
 23
   5314672.69748
 33
     -3690.92876
 62
5
 70
0
  0
3DFACE
  5
319DB
  8
default
 10
   1649689.23555
 20
   5314672.69748
 30
     -3690.92876
 11
   1650533.57654
 21
   5316383.80978
 31
     -3534.46638
 12
   1648917.32456
 22
   5316352.79212
 32
     -4674.58129
 13
   1648917.32456
 23
   5316352.79212
 33
     -4674.58129
 62
5
 70
0
  0
3DFACE
  5
319DC
  8
default
 10
   1649689.23555
 20
   5314672.69748
 30
     -3690.92876
 11
   1648917.32456
 21
   5316352.79212
 31
     -4674.58129
 12
   1647526.84942
 22
   5314659.93756
 32
     -5218.34887
 13
   1647526.84942
 23
   5314659.93756
 33
     -5218.34887
 62
5
 70
0
  0
3DFACE
  5
319DD
  8
default
 10
   1647526.84942
 20
   5314659.93756
 30
     -5218.34887
 11
   1648917.32456
 21
   5316352.79212
 31
     -4674.58129
 12
   1646618.46845
 22
   5316881.34205
 32
     -6434.56617
 13
   1646618.46845
 23
   5316881.34205
 33
     -6434.56617
 62
5
 70
0
  0
3DFACE
  5
319DE
  8
default
 10
   1646618.46845
 20
   5316881.34205
 30
     -6434.56617
 11
   1645921.86261
 21
   5314887.41729
 31
     -6411.86979
 12
   1647526.84942
 22
   5314659.93756
 32
     -5218.34887
 13
   1647526.84942
 23
   5314659.93756
 33
     -5218.34887
 62
5
 70
0
  0
3DFACE
  5
319DF
  8
default
 10
   1643807.10810
 20
   5315874.05743
 30
     -8164.86974
 11
   1645921.86261
 21
   5314887.41729
 31
     -6411.86979
 12
   1646618.46845
 22
   5316881.34205
 32
     -6434.56617
 13
   1646618.46845
 23
   5316881.34205
 33
     -6434.56617
 62
5
 70
0
  0
3DFACE
  5
319E0
  8
default
 10
   1644576.57556
 20
   5313388.58079
 30
     -6977.75494
 11
   1645921.86261
 21
   5314887.41729
 31
     -6411.86979
 12
   1643807.10810
 22
   5315874.05743
 32
     -8164.86974
 13
   1643807.10810
 23
   5315874.05743
 33
     -8164.86974
 62
5
 70
0
  0
3DFACE
  5
319E1
  8
default
 10
   1646618.46845
 20
   5316881.34205
 30
     -6434.56617
 11
   1645827.85475
 21
   5318675.81040
 31
     -7459.05872
 12
   1643807.10810
 22
   5315874.05743
 32
     -8164.86974
 13
   1643807.10810
 23
   5315874.05743
 33
     -8164.86974
 62
5
 70
0
  0
3DFACE
  5
319E2
  8
default
 10
   1646618.46845
 20
   5316881.34205
 30
     -6434.56617
 11
   1647294.64538
 21
   5319229.68423
 31
     -6566.28466
 12
   1645827.85475
 22
   5318675.81040
 32
     -7459.05872
 13
   1645827.85475
 23
   5318675.81040
 33
     -7459.05872
 62
5
 70
0
  0
3DFACE
  5
319E3
  8
default
 10
   1648321.61097
 20
   5318168.59380
 30
     -5562.31263
 11
   1647294.64538
 21
   5319229.68423
 31
     -6566.28466
 12
   1646618.46845
 22
   5316881.34205
 32
     -6434.56617
 13
   1646618.46845
 23
   5316881.34205
 33
     -6434.56617
 62
5
 70
0
  0
3DFACE
  5
319E4
  8
default
 10
   1648546.02143
 20
   5320455.97770
 30
     -5995.91257
 11
   1647294.64538
 21
   5319229.68423
 31
     -6566.28466
 12
   1648321.61097
 22
   5318168.59380
 32
     -5562.31263
 13
   1648321.61097
 23
   5318168.59380
 33
     -5562.31263
 62
5
 70
0
  0
3DFACE
  5
319E5
  8
default
 10
   1646148.25596
 20
   5320898.02579
 30
     -7809.33464
 11
   1647294.64538
 21
   5319229.68423
 31
     -6566.28466
 12
   1648546.02143
 22
   5320455.97770
 32
     -5995.91257
 13
   1648546.02143
 23
   5320455.97770
 33
     -5995.91257
 62
5
 70
0
  0
3DFACE
  5
319E6
  8
default
 10
   1645827.85475
 20
   5318675.81040
 30
     -7459.05872
 11
   1647294.64538
 21
   5319229.68423
 31
     -6566.28466
 12
   1646148.25596
 22
   5320898.02579
 32
     -7809.33464
 13
   1646148.25596
 23
   5320898.02579
 33
     -7809.33464
 62
5
 70
0
  0
3DFACE
  5
319E7
  8
default
 10
   1644055.34018
 20
   5318724.89876
 30
     -8724.44413
 11
   1645827.85475
 21
   5318675.81040
 31
     -7459.05872
 12
   1646148.25596
 22
   5320898.02579
 32
     -7809.33464
 13
   1646148.25596
 23
   5320898.02579
 33
     -7809.33464
 62
5
 70
0
  0
3DFACE
  5
319E8
  8
default
 10
   1643807.10810
 20
   5315874.05743
 30
     -8164.86974
 11
   1645827.85475
 21
   5318675.81040
 31
     -7459.05872
 12
   1644055.34018
 22
   5318724.89876
 32
     -8724.44413
 13
   1644055.34018
 23
   5318724.89876
 33
     -8724.44413
 62
5
 70
0
  0
3DFACE
  5
319E9
  8
default
 10
   1644055.34018
 20
   5318724.89876
 30
     -8724.44413
 11
   1643070.19069
 21
   5317222.48159
 31
     -9037.29713
 12
   1643807.10810
 22
   5315874.05743
 32
     -8164.86974
 13
   1643807.10810
 23
   5315874.05743
 33
     -8164.86974
 62
5
 70
0
  0
3DFACE
  5
319EA
  8
default
 10
   1642171.87627
 20
   5318403.85638
 30
     -9978.10632
 11
   1643070.19069
 21
   5317222.48159
 31
     -9037.29713
 12
   1644055.34018
 22
   5318724.89876
 32
     -8724.44413
 13
   1644055.34018
 23
   5318724.89876
 33
     -8724.44413
 62
5
 70
0
  0
3DFACE
  5
319EB
  8
default
 10
   1641563.34453
 20
   5316110.17242
 30
     -9816.34530
 11
   1643070.19069
 21
   5317222.48159
 31
     -9037.29713
 12
   1642171.87627
 22
   5318403.85638
 32
     -9978.10632
 13
   1642171.87627
 23
   5318403.85638
 33
     -9978.10632
 62
5
 70
0
  0
3DFACE
  5
319EC
  8
default
 10
   1643807.10810
 20
   5315874.05743
 30
     -8164.86974
 11
   1643070.19069
 21
   5317222.48159
 31
     -9037.29713
 12
   1641563.34453
 22
   5316110.17242
 32
     -9816.34530
 13
   1641563.34453
 23
   5316110.17242
 33
     -9816.34530
 62
5
 70
0
  0
3DFACE
  5
319ED
  8
default
 10
   1642587.93129
 20
   5320721.95257
 30
    -10280.98266
 11
   1642171.87627
 21
   5318403.85638
 31
     -9978.10632
 12
   1644055.34018
 22
   5318724.89876
 32
     -8724.44413
 13
   1644055.34018
 23
   5318724.89876
 33
     -8724.44413
 62
5
 70
0
  0
3DFACE
  5
319EE
  8
default
 10
   1644055.34018
 20
   5318724.89876
 30
     -8724.44413
 11
   1644381.98435
 21
   5320937.27457
 31
     -9067.27748
 12
   1642587.93129
 22
   5320721.95257
 32
    -10280.98266
 13
   1642587.93129
 23
   5320721.95257
 33
    -10280.98266
 62
5
 70
0
  0
3DFACE
  5
319EF
  8
default
 10
   1646148.25596
 20
   5320898.02579
 30
     -7809.33464
 11
   1644381.98435
 21
   5320937.27457
 31
     -9067.27748
 12
   1644055.34018
 22
   5318724.89876
 32
     -8724.44413
 13
   1644055.34018
 23
   5318724.89876
 33
     -8724.44413
 62
5
 70
0
  0
3DFACE
  5
319F0
  8
default
 10
   1645238.66063
 20
   5323552.94842
 30
     -9140.99391
 11
   1644381.98435
 21
   5320937.27457
 31
     -9067.27748
 12
   1646148.25596
 22
   5320898.02579
 32
     -7809.33464
 13
   1646148.25596
 23
   5320898.02579
 33
     -7809.33464
 62
5
 70
0
  0
3DFACE
  5
319F1
  8
default
 10
   1643181.53668
 20
   5323236.83320
 30
    -10511.49263
 11
   1644381.98435
 21
   5320937.27457
 31
     -9067.27748
 12
   1645238.66063
 22
   5323552.94842
 32
     -9140.99391
 13
   1645238.66063
 23
   5323552.94842
 33
     -9140.99391
 62
5
 70
0
  0
3DFACE
  5
319F2
  8
default
 10
   1642587.93129
 20
   5320721.95257
 30
    -10280.98266
 11
   1644381.98435
 21
   5320937.27457
 31
     -9067.27748
 12
   1643181.53668
 22
   5323236.83320
 32
    -10511.49263
 13
   1643181.53668
 23
   5323236.83320
 33
    -10511.49263
 62
5
 70
0
  0
3DFACE
  5
319F3
  8
default
 10
   1643181.53668
 20
   5323236.83320
 30
    -10511.49263
 11
   1641976.49260
 21
   5322062.07811
 31
    -11061.38530
 12
   1642587.93129
 22
   5320721.95257
 32
    -10280.98266
 13
   1642587.93129
 23
   5320721.95257
 33
    -10280.98266
 62
5
 70
0
  0
3DFACE
  5
319F4
  8
default
 10
   1645238.66063
 20
   5323552.94842
 30
     -9140.99391
 11
   1644268.50457
 21
   5324742.97753
 31
    -10134.31363
 12
   1643181.53668
 22
   5323236.83320
 32
    -10511.49263
 13
   1643181.53668
 23
   5323236.83320
 33
    -10511.49263
 62
5
 70
0
  0
3DFACE
  5
319F5
  8
default
 10
   1646582.44279
 20
   5325644.07623
 30
     -8726.90101
 11
   1644268.50457
 21
   5324742.97753
 31
    -10134.31363
 12
   1645238.66063
 22
   5323552.94842
 32
     -9140.99391
 13
   1645238.66063
 23
   5323552.94842
 33
     -9140.99391
 62
5
 70
0
  0
3DFACE
  5
319F6
  8
default
 10
   1644881.23699
 20
   5326546.66834
 30
    -10169.19089
 11
   1644268.50457
 21
   5324742.97753
 31
    -10134.31363
 12
   1646582.44279
 22
   5325644.07623
 32
     -8726.90101
 13
   1646582.44279
 23
   5325644.07623
 33
     -8726.90101
 62
5
 70
0
  0
3DFACE
  5
319F7
  8
default
 10
   1646582.44279
 20
   5325644.07623
 30
     -8726.90101
 11
   1646384.84078
 21
   5327514.62527
 31
     -9352.33900
 12
   1644881.23699
 22
   5326546.66834
 32
    -10169.19089
 13
   1644881.23699
 23
   5326546.66834
 33
    -10169.19089
 62
5
 70
0
  0
3DFACE
  5
319F8
  8
default
 10
   1648313.05487
 20
   5327241.76943
 30
     -7913.59518
 11
   1646384.84078
 21
   5327514.62527
 31
     -9352.33900
 12
   1646582.44279
 22
   5325644.07623
 32
     -8726.90101
 13
   1646582.44279
 23
   5325644.07623
 33
     -8726.90101
 62
5
 70
0
  0
3DFACE
  5
319F9
  8
default
 10
   1648384.83753
 20
   5329905.65011
 30
     -8554.17414
 11
   1646384.84078
 21
   5327514.62527
 31
     -9352.33900
 12
   1648313.05487
 22
   5327241.76943
 32
     -7913.59518
 13
   1648313.05487
 23
   5327241.76943
 33
     -7913.59518
 62
5
 70
0
  0
3DFACE
  5
319FA
  8
default
 10
   1646322.52845
 20
   5329426.79980
 30
     -9895.51206
 11
   1646384.84078
 21
   5327514.62527
 31
     -9352.33900
 12
   1648384.83753
 22
   5329905.65011
 32
     -8554.17414
 13
   1648384.83753
 23
   5329905.65011
 33
     -8554.17414
 62
5
 70
0
  0
3DFACE
  5
319FB
  8
default
 10
   1646322.52845
 20
   5329426.79980
 30
     -9895.51206
 11
   1644714.68151
 21
   5328522.71426
 31
    -10797.79531
 12
   1646384.84078
 22
   5327514.62527
 32
     -9352.33900
 13
   1646384.84078
 23
   5327514.62527
 33
     -9352.33900
 62
5
 70
0
  0
3DFACE
  5
319FC
  8
default
 10
   1646384.84078
 20
   5327514.62527
 30
     -9352.33900
 11
   1644714.68151
 21
   5328522.71426
 31
    -10797.79531
 12
   1644881.23699
 22
   5326546.66834
 32
    -10169.19089
 13
   1644881.23699
 23
   5326546.66834
 33
    -10169.19089
 62
5
 70
0
  0
3DFACE
  5
319FD
  8
default
 10
   1646322.52845
 20
   5329426.79980
 30
     -9895.51206
 11
   1648384.83753
 21
   5329905.65011
 31
     -8554.17414
 12
   1646580.33330
 22
   5332128.93751
 32
    -10410.70507
 13
   1646580.33330
 23
   5332128.93751
 33
    -10410.70507
 62
5
 70
0
  0
3DFACE
  5
319FE
  8
default
 10
   1646580.33330
 20
   5332128.93751
 30
    -10410.70507
 11
   1648384.83753
 21
   5329905.65011
 31
     -8554.17414
 12
   1648772.61875
 22
   5332447.39226
 32
     -8928.70799
 13
   1648772.61875
 23
   5332447.39226
 33
     -8928.70799
 62
5
 70
0
  0
3DFACE
  5
319FF
  8
default
 10
   1648034.11721
 20
   5335033.38025
 30
    -10242.90569
 11
   1646580.33330
 21
   5332128.93751
 31
    -10410.70507
 12
   1648772.61875
 22
   5332447.39226
 32
     -8928.70799
 13
   1648772.61875
 23
   5332447.39226
 33
     -8928.70799
 62
5
 70
0
  0
3DFACE
  5
31A00
  8
default
 10
   1648772.61875
 20
   5332447.39226
 30
     -8928.70799
 11
   1649997.02540
 21
   5333918.71305
 31
     -8546.56815
 12
   1648034.11721
 22
   5335033.38025
 32
    -10242.90569
 13
   1648034.11721
 23
   5335033.38025
 33
    -10242.90569
 62
5
 70
0
  0
3DFACE
  5
31A01
  8
default
 10
   1650866.23575
 20
   5332578.85869
 30
     -7506.28675
 11
   1649997.02540
 21
   5333918.71305
 31
     -8546.56815
 12
   1648772.61875
 22
   5332447.39226
 32
     -8928.70799
 13
   1648772.61875
 23
   5332447.39226
 33
     -8928.70799
 62
5
 70
0
  0
3DFACE
  5
31A02
  8
default
 10
   1651473.93230
 20
   5335024.80957
 30
     -8035.29138
 11
   1649997.02540
 21
   5333918.71305
 31
     -8546.56815
 12
   1650866.23575
 22
   5332578.85869
 32
     -7506.28675
 13
   1650866.23575
 23
   5332578.85869
 33
     -7506.28675
 62
5
 70
0
  0
3DFACE
  5
31A03
  8
default
 10
   1649891.93719
 20
   5335753.54184
 30
     -9338.25754
 11
   1649997.02540
 21
   5333918.71305
 31
     -8546.56815
 12
   1651473.93230
 22
   5335024.80957
 32
     -8035.29138
 13
   1651473.93230
 23
   5335024.80957
 33
     -8035.29138
 62
5
 70
0
  0
3DFACE
  5
31A04
  8
default
 10
   1648034.11721
 20
   5335033.38025
 30
    -10242.90569
 11
   1649997.02540
 21
   5333918.71305
 31
     -8546.56815
 12
   1649891.93719
 22
   5335753.54184
 32
     -9338.25754
 13
   1649891.93719
 23
   5335753.54184
 33
     -9338.25754
 62
5
 70
0
  0
3DFACE
  5
31A05
  8
default
 10
   1649891.93719
 20
   5335753.54184
 30
     -9338.25754
 11
   1648432.39455
 21
   5337030.51524
 31
    -10781.42426
 12
   1648034.11721
 22
   5335033.38025
 32
    -10242.90569
 13
   1648034.11721
 23
   5335033.38025
 33
    -10242.90569
 62
5
 70
0
  0
3DFACE
  5
31A06
  8
default
 10
   1650413.74100
 20
   5337818.61498
 30
     -9899.17746
 11
   1648432.39455
 21
   5337030.51524
 31
    -10781.42426
 12
   1649891.93719
 22
   5335753.54184
 32
     -9338.25754
 13
   1649891.93719
 23
   5335753.54184
 33
     -9338.25754
 62
5
 70
0
  0
3DFACE
  5
31A07
  8
default
 10
   1649891.93719
 20
   5335753.54184
 30
     -9338.25754
 11
   1651588.57931
 21
   5336824.62647
 31
     -8747.82858
 12
   1650413.74100
 22
   5337818.61498
 32
     -9899.17746
 13
   1650413.74100
 23
   5337818.61498
 33
     -9899.17746
 62
5
 70
0
  0
3DFACE
  5
31A08
  8
default
 10
   1651473.93230
 20
   5335024.80957
 30
     -8035.29138
 11
   1651588.57931
 21
   5336824.62647
 31
     -8747.82858
 12
   1649891.93719
 22
   5335753.54184
 32
     -9338.25754
 13
   1649891.93719
 23
   5335753.54184
 33
     -9338.25754
 62
5
 70
0
  0
3DFACE
  5
31A09
  8
default
 10
   1652998.23026
 20
   5336193.29276
 30
     -7608.36115
 11
   1651588.57931
 21
   5336824.62647
 31
     -8747.82858
 12
   1651473.93230
 22
   5335024.80957
 32
     -8035.29138
 13
   1651473.93230
 23
   5335024.80957
 33
     -8035.29138
 62
5
 70
0
  0
3DFACE
  5
31A0A
  8
default
 10
   1653466.19888
 20
   5338257.30409
 30
     -8233.50587
 11
   1651588.57931
 21
   5336824.62647
 31
     -8747.82858
 12
   1652998.23026
 22
   5336193.29276
 32
     -7608.36115
 13
   1652998.23026
 23
   5336193.29276
 33
     -7608.36115
 62
5
 70
0
  0
3DFACE
  5
31A0B
  8
default
 10
   1652322.24956
 20
   5339365.99692
 30
     -9418.39584
 11
   1651588.57931
 21
   5336824.62647
 31
     -8747.82858
 12
   1653466.19888
 22
   5338257.30409
 32
     -8233.50587
 13
   1653466.19888
 23
   5338257.30409
 33
     -8233.50587
 62
5
 70
0
  0
3DFACE
  5
31A0C
  8
default
 10
   1650413.74100
 20
   5337818.61498
 30
     -9899.17746
 11
   1651588.57931
 21
   5336824.62647
 31
     -8747.82858
 12
   1652322.24956
 22
   5339365.99692
 32
     -9418.39584
 13
   1652322.24956
 23
   5339365.99692
 33
     -9418.39584
 62
5
 70
0
  0
3DFACE
  5
31A0D
  8
default
 10
   1650413.74100
 20
   5337818.61498
 30
     -9899.17746
 11
   1652322.24956
 21
   5339365.99692
 31
     -9418.39584
 12
   1650885.19870
 22
   5340047.84958
 32
    -10600.93323
 13
   1650885.19870
 23
   5340047.84958
 33
    -10600.93323
 62
5
 70
0
  0
3DFACE
  5
31A0E
  8
default
 10
   1650885.19870
 20
   5340047.84958
 30
    -10600.93323
 11
   1652322.24956
 21
   5339365.99692
 31
     -9418.39584
 12
   1652828.71413
 22
   5341234.25934
 32
     -9934.16842
 13
   1652828.71413
 23
   5341234.25934
 33
     -9934.16842
 62
5
 70
0
  0
3DFACE
  5
31A0F
  8
default
 10
   1652828.71413
 20
   5341234.25934
 30
     -9934.16842
 11
   1652322.24956
 21
   5339365.99692
 31
     -9418.39584
 12
   1654426.20179
 22
   5340334.67373
 32
     -8564.88740
 13
   1654426.20179
 23
   5340334.67373
 33
     -8564.88740
 62
5
 70
0
  0
3DFACE
  5
31A10
  8
default
 10
   1654426.20179
 20
   5340334.67373
 30
     -8564.88740
 11
   1652322.24956
 21
   5339365.99692
 31
     -9418.39584
 12
   1653466.19888
 22
   5338257.30409
 32
     -8233.50587
 13
   1653466.19888
 23
   5338257.30409
 33
     -8233.50587
 62
5
 70
0
  0
3DFACE
  5
31A11
  8
default
 10
   1656162.01876
 20
   5339689.90036
 30
     -7222.28658
 11
   1654426.20179
 21
   5340334.67373
 31
     -8564.88740
 12
   1653466.19888
 22
   5338257.30409
 32
     -8233.50587
 13
   1653466.19888
 23
   5338257.30409
 33
     -8233.50587
 62
5
 70
0
  0
3DFACE
  5
31A12
  8
default
 10
   1656062.53799
 20
   5342312.11982
 30
     -8997.92935
 11
   1654426.20179
 21
   5340334.67373
 31
     -8564.88740
 12
   1656162.01876
 22
   5339689.90036
 32
     -7222.28658
 13
   1656162.01876
 23
   5339689.90036
 33
     -7222.28658
 62
5
 70
0
  0
3DFACE
  5
31A13
  8
default
 10
   1656162.01876
 20
   5339689.90036
 30
     -7222.28658
 11
   1657916.09741
 21
   5341404.19659
 31
     -7620.56948
 12
   1656062.53799
 22
   5342312.11982
 32
     -8997.92935
 13
   1656062.53799
 23
   5342312.11982
 33
     -8997.92935
 62
5
 70
0
  0
3DFACE
  5
31A14
  8
default
 10
   1659039.68306
 20
   5339987.37504
 30
     -5926.86334
 11
   1657916.09741
 21
   5341404.19659
 31
     -7620.56948
 12
   1656162.01876
 22
   5339689.90036
 32
     -7222.28658
 13
   1656162.01876
 23
   5339689.90036
 33
     -7222.28658
 62
5
 70
0
  0
3DFACE
  5
31A15
  8
default
 10
   1660498.61229
 20
   5341987.55508
 30
     -7324.47449
 11
   1657916.09741
 21
   5341404.19659
 31
     -7620.56948
 12
   1659039.68306
 22
   5339987.37504
 32
     -5926.86334
 13
   1659039.68306
 23
   5339987.37504
 33
     -5926.86334
 62
5
 70
0
  0
3DFACE
  5
31A16
  8
default
 10
   1660498.61229
 20
   5341987.55508
 30
     -7324.47449
 11
   1659032.92886
 21
   5343019.04982
 31
     -8972.84242
 12
   1657916.09741
 22
   5341404.19659
 32
     -7620.56948
 13
   1657916.09741
 23
   5341404.19659
 33
     -7620.56948
 62
5
 70
0
  0
3DFACE
  5
31A17
  8
default
 10
   1657916.09741
 20
   5341404.19659
 30
     -7620.56948
 11
   1659032.92886
 21
   5343019.04982
 31
     -8972.84242
 12
   1656062.53799
 22
   5342312.11982
 32
     -8997.92935
 13
   1656062.53799
 23
   5342312.11982
 33
     -8997.92935
 62
5
 70
0
  0
3DFACE
  5
31A18
  8
default
 10
   1653466.19888
 20
   5338257.30409
 30
     -8233.50587
 11
   1654653.36117
 21
   5337026.09509
 31
     -6963.43794
 12
   1656162.01876
 22
   5339689.90036
 32
     -7222.28658
 13
   1656162.01876
 23
   5339689.90036
 33
     -7222.28658
 62
5
 70
0
  0
3DFACE
  5
31A19
  8
default
 10
   1653466.19888
 20
   5338257.30409
 30
     -8233.50587
 11
   1652998.23026
 21
   5336193.29276
 31
     -7608.36115
 12
   1654653.36117
 22
   5337026.09509
 32
     -6963.43794
 13
   1654653.36117
 23
   5337026.09509
 33
     -6963.43794
 62
5
 70
0
  0
3DFACE
  5
31A1A
  8
default
 10
   1654653.36117
 20
   5337026.09509
 30
     -6963.43794
 11
   1652998.23026
 21
   5336193.29276
 31
     -7608.36115
 12
   1654057.20495
 22
   5335026.43594
 32
     -6446.70607
 13
   1654057.20495
 23
   5335026.43594
 33
     -6446.70607
 62
5
 70
0
  0
3DFACE
  5
31A1B
  8
default
 10
   1656422.69432
 20
   5336842.86434
 30
     -5798.47434
 11
   1654653.36117
 21
   5337026.09509
 31
     -6963.43794
 12
   1654057.20495
 22
   5335026.43594
 32
     -6446.70607
 13
   1654057.20495
 23
   5335026.43594
 33
     -6446.70607
 62
5
 70
0
  0
3DFACE
  5
31A1C
  8
default
 10
   1656162.01876
 20
   5339689.90036
 30
     -7222.28658
 11
   1654653.36117
 21
   5337026.09509
 31
     -6963.43794
 12
   1656422.69432
 22
   5336842.86434
 32
     -5798.47434
 13
   1656422.69432
 23
   5336842.86434
 33
     -5798.47434
 62
5
 70
0
  0
3DFACE
  5
31A1D
  8
default
 10
   1654057.20495
 20
   5335026.43594
 30
     -6446.70607
 11
   1656025.05038
 21
   5334473.37732
 31
     -4995.15230
 12
   1656422.69432
 22
   5336842.86434
 32
     -5798.47434
 13
   1656422.69432
 23
   5336842.86434
 33
     -5798.47434
 62
5
 70
0
  0
3DFACE
  5
31A1E
  8
default
 10
   1654057.20495
 20
   5335026.43594
 30
     -6446.70607
 11
   1654487.69354
 21
   5333306.41813
 31
     -5432.65216
 12
   1656025.05038
 22
   5334473.37732
 32
     -4995.15230
 13
   1656025.05038
 23
   5334473.37732
 33
     -4995.15230
 62
5
 70
0
  0
3DFACE
  5
31A1F
  8
default
 10
   1654057.20495
 20
   5335026.43594
 30
     -6446.70607
 11
   1652316.19370
 21
   5333708.75479
 31
     -6962.79484
 12
   1654487.69354
 22
   5333306.41813
 32
     -5432.65216
 13
   1654487.69354
 23
   5333306.41813
 33
     -5432.65216
 62
5
 70
0
  0
3DFACE
  5
31A20
  8
default
 10
   1652998.23026
 20
   5336193.29276
 30
     -7608.36115
 11
   1652316.19370
 21
   5333708.75479
 31
     -6962.79484
 12
   1654057.20495
 22
   5335026.43594
 32
     -6446.70607
 13
   1654057.20495
 23
   5335026.43594
 33
     -6446.70607
 62
5
 70
0
  0
3DFACE
  5
31A21
  8
default
 10
   1651473.93230
 20
   5335024.80957
 30
     -8035.29138
 11
   1652316.19370
 21
   5333708.75479
 31
     -6962.79484
 12
   1652998.23026
 22
   5336193.29276
 32
     -7608.36115
 13
   1652998.23026
 23
   5336193.29276
 33
     -7608.36115
 62
5
 70
0
  0
3DFACE
  5
31A22
  8
default
 10
   1650866.23575
 20
   5332578.85869
 30
     -7506.28675
 11
   1652316.19370
 21
   5333708.75479
 31
     -6962.79484
 12
   1651473.93230
 22
   5335024.80957
 32
     -8035.29138
 13
   1651473.93230
 23
   5335024.80957
 33
     -8035.29138
 62
5
 70
0
  0
3DFACE
  5
31A23
  8
default
 10
   1652936.06515
 20
   5332196.67574
 30
     -5986.70188
 11
   1652316.19370
 21
   5333708.75479
 31
     -6962.79484
 12
   1650866.23575
 22
   5332578.85869
 32
     -7506.28675
 13
   1650866.23575
 23
   5332578.85869
 33
     -7506.28675
 62
5
 70
0
  0
3DFACE
  5
31A24
  8
default
 10
   1654487.69354
 20
   5333306.41813
 30
     -5432.65216
 11
   1652316.19370
 21
   5333708.75479
 31
     -6962.79484
 12
   1652936.06515
 22
   5332196.67574
 32
     -5986.70188
 13
   1652936.06515
 23
   5332196.67574
 33
     -5986.70188
 62
5
 70
0
  0
3DFACE
  5
31A25
  8
default
 10
   1652936.06515
 20
   5332196.67574
 30
     -5986.70188
 11
   1654006.99259
 21
   5331037.73986
 31
     -4883.63574
 12
   1654487.69354
 22
   5333306.41813
 32
     -5432.65216
 13
   1654487.69354
 23
   5333306.41813
 33
     -5432.65216
 62
5
 70
0
  0
3DFACE
  5
31A26
  8
default
 10
   1651862.00288
 20
   5329152.48231
 30
     -5902.90580
 11
   1654006.99259
 21
   5331037.73986
 31
     -4883.63574
 12
   1652936.06515
 22
   5332196.67574
 32
     -5986.70188
 13
   1652936.06515
 23
   5332196.67574
 33
     -5986.70188
 62
5
 70
0
  0
3DFACE
  5
31A27
  8
default
 10
   1653545.70298
 20
   5329094.34015
 30
     -4688.30922
 11
   1654006.99259
 21
   5331037.73986
 31
     -4883.63574
 12
   1651862.00288
 22
   5329152.48231
 32
     -5902.90580
 13
   1651862.00288
 23
   5329152.48231
 33
     -5902.90580
 62
5
 70
0
  0
3DFACE
  5
31A28
  8
default
 10
   1653545.70298
 20
   5329094.34015
 30
     -4688.30922
 11
   1651862.00288
 21
   5329152.48231
 31
     -5902.90580
 12
   1652337.03890
 22
   5327254.52524
 32
     -5070.56549
 13
   1652337.03890
 23
   5327254.52524
 33
     -5070.56549
 62
5
 70
0
  0
3DFACE
  5
31A29
  8
default
 10
   1653545.70298
 20
   5329094.34015
 30
     -4688.30922
 11
   1652337.03890
 21
   5327254.52524
 31
     -5070.56549
 12
   1654820.95672
 22
   5327657.85036
 32
     -3415.81344
 13
   1654820.95672
 23
   5327657.85036
 33
     -3415.81344
 62
5
 70
0
  0
3DFACE
  5
31A2A
  8
default
 10
   1654820.95672
 20
   5327657.85036
 30
     -3415.81344
 11
   1652337.03890
 21
   5327254.52524
 31
     -5070.56549
 12
   1653344.88526
 22
   5325701.49647
 32
     -3958.60419
 13
   1653344.88526
 23
   5325701.49647
 33
     -3958.60419
 62
5
 70
0
  0
3DFACE
  5
31A2B
  8
default
 10
   1652337.03890
 20
   5327254.52524
 30
     -5070.56549
 11
   1652056.33277
 21
   5324472.94675
 31
     -4548.32849
 12
   1653344.88526
 22
   5325701.49647
 32
     -3958.60419
 13
   1653344.88526
 23
   5325701.49647
 33
     -3958.60419
 62
5
 70
0
  0
3DFACE
  5
31A2C
  8
default
 10
   1650694.95321
 20
   5326073.52097
 30
     -5924.21610
 11
   1652056.33277
 21
   5324472.94675
 31
     -4548.32849
 12
   1652337.03890
 22
   5327254.52524
 32
     -5070.56549
 13
   1652337.03890
 23
   5327254.52524
 33
     -5070.56549
 62
5
 70
0
  0
3DFACE
  5
31A2D
  8
default
 10
   1649821.88215
 20
   5324036.32026
 30
     -6018.94847
 11
   1652056.33277
 21
   5324472.94675
 31
     -4548.32849
 12
   1650694.95321
 22
   5326073.52097
 32
     -5924.21610
 13
   1650694.95321
 23
   5326073.52097
 33
     -5924.21610
 62
5
 70
0
  0
3DFACE
  5
31A2E
  8
default
 10
   1651099.37999
 20
   5322854.63801
 30
     -4809.05802
 11
   1652056.33277
 21
   5324472.94675
 31
     -4548.32849
 12
   1649821.88215
 22
   5324036.32026
 32
     -6018.94847
 13
   1649821.88215
 23
   5324036.32026
 33
     -6018.94847
 62
5
 70
0
  0
3DFACE
  5
31A2F
  8
default
 10
   1653046.69173
 20
   5323308.66728
 30
     -3552.53579
 11
   1652056.33277
 21
   5324472.94675
 31
     -4548.32849
 12
   1651099.37999
 22
   5322854.63801
 32
     -4809.05802
 13
   1651099.37999
 23
   5322854.63801
 33
     -4809.05802
 62
5
 70
0
  0
3DFACE
  5
31A30
  8
default
 10
   1653344.88526
 20
   5325701.49647
 30
     -3958.60419
 11
   1652056.33277
 21
   5324472.94675
 31
     -4548.32849
 12
   1653046.69173
 22
   5323308.66728
 32
     -3552.53579
 13
   1653046.69173
 23
   5323308.66728
 33
     -3552.53579
 62
5
 70
0
  0
3DFACE
  5
31A31
  8
default
 10
   1649821.88215
 20
   5324036.32026
 30
     -6018.94847
 11
   1649570.76971
 21
   5322111.81239
 31
     -5698.47823
 12
   1651099.37999
 22
   5322854.63801
 32
     -4809.05802
 13
   1651099.37999
 23
   5322854.63801
 33
     -4809.05802
 62
5
 70
0
  0
3DFACE
  5
31A32
  8
default
 10
   1648067.37304
 20
   5323749.67360
 30
     -7189.69697
 11
   1649570.76971
 21
   5322111.81239
 31
     -5698.47823
 12
   1649821.88215
 22
   5324036.32026
 32
     -6018.94847
 13
   1649821.88215
 23
   5324036.32026
 33
     -6018.94847
 62
5
 70
0
  0
3DFACE
  5
31A33
  8
default
 10
   1648546.02143
 20
   5320455.97770
 30
     -5995.91257
 11
   1649570.76971
 21
   5322111.81239
 31
     -5698.47823
 12
   1648067.37304
 22
   5323749.67360
 32
     -7189.69697
 13
   1648067.37304
 23
   5323749.67360
 33
     -7189.69697
 62
5
 70
0
  0
3DFACE
  5
31A34
  8
default
 10
   1650474.49549
 20
   5320474.74118
 30
     -4638.85460
 11
   1649570.76971
 21
   5322111.81239
 31
     -5698.47823
 12
   1648546.02143
 22
   5320455.97770
 32
     -5995.91257
 13
   1648546.02143
 23
   5320455.97770
 33
     -5995.91257
 62
5
 70
0
  0
3DFACE
  5
31A35
  8
default
 10
   1651099.37999
 20
   5322854.63801
 30
     -4809.05802
 11
   1649570.76971
 21
   5322111.81239
 31
     -5698.47823
 12
   1650474.49549
 22
   5320474.74118
 32
     -4638.85460
 13
   1650474.49549
 23
   5320474.74118
 33
     -4638.85460
 62
5
 70
0
  0
3DFACE
  5
31A36
  8
default
 10
   1648546.02143
 20
   5320455.97770
 30
     -5995.91257
 11
   1648321.61097
 21
   5318168.59380
 31
     -5562.31263
 12
   1650474.49549
 22
   5320474.74118
 32
     -4638.85460
 13
   1650474.49549
 23
   5320474.74118
 33
     -4638.85460
 62
5
 70
0
  0
3DFACE
  5
31A37
  8
default
 10
   1650474.49549
 20
   5320474.74118
 30
     -4638.85460
 11
   1648321.61097
 21
   5318168.59380
 31
     -5562.31263
 12
   1650140.61586
 22
   5318070.90071
 32
     -4251.40221
 13
   1650140.61586
 23
   5318070.90071
 33
     -4251.40221
 62
5
 70
0
  0
3DFACE
  5
31A38
  8
default
 10
   1648321.61097
 20
   5318168.59380
 30
     -5562.31263
 11
   1648917.32456
 21
   5316352.79212
 31
     -4674.58129
 12
   1650140.61586
 22
   5318070.90071
 32
     -4251.40221
 13
   1650140.61586
 23
   5318070.90071
 33
     -4251.40221
 62
5
 70
0
  0
3DFACE
  5
31A39
  8
default
 10
   1646618.46845
 20
   5316881.34205
 30
     -6434.56617
 11
   1648917.32456
 21
   5316352.79212
 31
     -4674.58129
 12
   1648321.61097
 22
   5318168.59380
 32
     -5562.31263
 13
   1648321.61097
 23
   5318168.59380
 33
     -5562.31263
 62
5
 70
0
  0
3DFACE
  5
31A3A
  8
default
 10
   1648917.32456
 20
   5316352.79212
 30
     -4674.58129
 11
   1650533.57654
 21
   5316383.80978
 31
     -3534.46638
 12
   1650140.61586
 22
   5318070.90071
 32
     -4251.40221
 13
   1650140.61586
 23
   5318070.90071
 33
     -4251.40221
 62
5
 70
0
  0
3DFACE
  5
31A3B
  8
default
 10
   1648067.37304
 20
   5323749.67360
 30
     -7189.69697
 11
   1646148.25596
 21
   5320898.02579
 31
     -7809.33464
 12
   1648546.02143
 22
   5320455.97770
 32
     -5995.91257
 13
   1648546.02143
 23
   5320455.97770
 33
     -5995.91257
 62
5
 70
0
  0
3DFACE
  5
31A3C
  8
default
 10
   1645238.66063
 20
   5323552.94842
 30
     -9140.99391
 11
   1646148.25596
 21
   5320898.02579
 31
     -7809.33464
 12
   1648067.37304
 22
   5323749.67360
 32
     -7189.69697
 13
   1648067.37304
 23
   5323749.67360
 33
     -7189.69697
 62
5
 70
0
  0
3DFACE
  5
31A3D
  8
default
 10
   1648067.37304
 20
   5323749.67360
 30
     -7189.69697
 11
   1646582.44279
 21
   5325644.07623
 31
     -8726.90101
 12
   1645238.66063
 22
   5323552.94842
 32
     -9140.99391
 13
   1645238.66063
 23
   5323552.94842
 33
     -9140.99391
 62
5
 70
0
  0
3DFACE
  5
31A3E
  8
default
 10
   1648067.37304
 20
   5323749.67360
 30
     -7189.69697
 11
   1649006.93259
 21
   5325589.23680
 31
     -6994.49523
 12
   1646582.44279
 22
   5325644.07623
 32
     -8726.90101
 13
   1646582.44279
 23
   5325644.07623
 33
     -8726.90101
 62
5
 70
0
  0
3DFACE
  5
31A3F
  8
default
 10
   1649821.88215
 20
   5324036.32026
 30
     -6018.94847
 11
   1649006.93259
 21
   5325589.23680
 31
     -6994.49523
 12
   1648067.37304
 22
   5323749.67360
 32
     -7189.69697
 13
   1648067.37304
 23
   5323749.67360
 33
     -7189.69697
 62
5
 70
0
  0
3DFACE
  5
31A40
  8
default
 10
   1650694.95321
 20
   5326073.52097
 30
     -5924.21610
 11
   1649006.93259
 21
   5325589.23680
 31
     -6994.49523
 12
   1649821.88215
 22
   5324036.32026
 32
     -6018.94847
 13
   1649821.88215
 23
   5324036.32026
 33
     -6018.94847
 62
5
 70
0
  0
3DFACE
  5
31A41
  8
default
 10
   1650037.61415
 20
   5327871.25890
 30
     -6859.37583
 11
   1649006.93259
 21
   5325589.23680
 31
     -6994.49523
 12
   1650694.95321
 22
   5326073.52097
 32
     -5924.21610
 13
   1650694.95321
 23
   5326073.52097
 33
     -5924.21610
 62
5
 70
0
  0
3DFACE
  5
31A42
  8
default
 10
   1648313.05487
 20
   5327241.76943
 30
     -7913.59518
 11
   1649006.93259
 21
   5325589.23680
 31
     -6994.49523
 12
   1650037.61415
 22
   5327871.25890
 32
     -6859.37583
 13
   1650037.61415
 23
   5327871.25890
 33
     -6859.37583
 62
5
 70
0
  0
3DFACE
  5
31A43
  8
default
 10
   1646582.44279
 20
   5325644.07623
 30
     -8726.90101
 11
   1649006.93259
 21
   5325589.23680
 31
     -6994.49523
 12
   1648313.05487
 22
   5327241.76943
 32
     -7913.59518
 13
   1648313.05487
 23
   5327241.76943
 33
     -7913.59518
 62
5
 70
0
  0
3DFACE
  5
31A44
  8
default
 10
   1648313.05487
 20
   5327241.76943
 30
     -7913.59518
 11
   1650037.61415
 21
   5327871.25890
 31
     -6859.37583
 12
   1648384.83753
 22
   5329905.65011
 32
     -8554.17414
 13
   1648384.83753
 23
   5329905.65011
 33
     -8554.17414
 62
5
 70
0
  0
3DFACE
  5
31A45
  8
default
 10
   1648384.83753
 20
   5329905.65011
 30
     -8554.17414
 11
   1650037.61415
 21
   5327871.25890
 31
     -6859.37583
 12
   1650430.13260
 22
   5330002.81063
 32
     -7134.45574
 13
   1650430.13260
 23
   5330002.81063
 33
     -7134.45574
 62
5
 70
0
  0
3DFACE
  5
31A46
  8
default
 10
   1648772.61875
 20
   5332447.39226
 30
     -8928.70799
 11
   1648384.83753
 21
   5329905.65011
 31
     -8554.17414
 12
   1650430.13260
 22
   5330002.81063
 32
     -7134.45574
 13
   1650430.13260
 23
   5330002.81063
 33
     -7134.45574
 62
5
 70
0
  0
3DFACE
  5
31A47
  8
default
 10
   1650430.13260
 20
   5330002.81063
 30
     -7134.45574
 11
   1650866.23575
 21
   5332578.85869
 31
     -7506.28675
 12
   1648772.61875
 22
   5332447.39226
 32
     -8928.70799
 13
   1648772.61875
 23
   5332447.39226
 33
     -8928.70799
 62
5
 70
0
  0
3DFACE
  5
31A48
  8
default
 10
   1652936.06515
 20
   5332196.67574
 30
     -5986.70188
 11
   1650866.23575
 21
   5332578.85869
 31
     -7506.28675
 12
   1650430.13260
 22
   5330002.81063
 32
     -7134.45574
 13
   1650430.13260
 23
   5330002.81063
 33
     -7134.45574
 62
5
 70
0
  0
3DFACE
  5
31A49
  8
default
 10
   1650430.13260
 20
   5330002.81063
 30
     -7134.45574
 11
   1651862.00288
 21
   5329152.48231
 31
     -5902.90580
 12
   1652936.06515
 22
   5332196.67574
 32
     -5986.70188
 13
   1652936.06515
 23
   5332196.67574
 33
     -5986.70188
 62
5
 70
0
  0
3DFACE
  5
31A4A
  8
default
 10
   1650430.13260
 20
   5330002.81063
 30
     -7134.45574
 11
   1650037.61415
 21
   5327871.25890
 31
     -6859.37583
 12
   1651862.00288
 22
   5329152.48231
 32
     -5902.90580
 13
   1651862.00288
 23
   5329152.48231
 33
     -5902.90580
 62
5
 70
0
  0
3DFACE
  5
31A4B
  8
default
 10
   1651862.00288
 20
   5329152.48231
 30
     -5902.90580
 11
   1650037.61415
 21
   5327871.25890
 31
     -6859.37583
 12
   1652337.03890
 22
   5327254.52524
 32
     -5070.56549
 13
   1652337.03890
 23
   5327254.52524
 33
     -5070.56549
 62
5
 70
0
  0
3DFACE
  5
31A4C
  8
default
 10
   1652337.03890
 20
   5327254.52524
 30
     -5070.56549
 11
   1650037.61415
 21
   5327871.25890
 31
     -6859.37583
 12
   1650694.95321
 22
   5326073.52097
 32
     -5924.21610
 13
   1650694.95321
 23
   5326073.52097
 33
     -5924.21610
 62
5
 70
0
  0
3DFACE
  5
31A4D
  8
default
 10
   1654487.69354
 20
   5333306.41813
 30
     -5432.65216
 11
   1654006.99259
 21
   5331037.73986
 31
     -4883.63574
 12
   1655520.17632
 22
   5332095.66337
 32
     -4271.58373
 13
   1655520.17632
 23
   5332095.66337
 33
     -4271.58373
 62
5
 70
0
  0
3DFACE
  5
31A4E
  8
default
 10
   1656025.05038
 20
   5334473.37732
 30
     -4995.15230
 11
   1654487.69354
 21
   5333306.41813
 31
     -5432.65216
 12
   1655520.17632
 22
   5332095.66337
 32
     -4271.58373
 13
   1655520.17632
 23
   5332095.66337
 33
     -4271.58373
 62
5
 70
0
  0
3DFACE
  5
31A4F
  8
default
 10
   1658000.13194
 20
   5333828.54947
 30
     -3509.41758
 11
   1656025.05038
 21
   5334473.37732
 31
     -4995.15230
 12
   1655520.17632
 22
   5332095.66337
 32
     -4271.58373
 13
   1655520.17632
 23
   5332095.66337
 33
     -4271.58373
 62
5
 70
0
  0
3DFACE
  5
31A50
  8
default
 10
   1642540.93639
 20
   5313877.94709
 30
     -8544.10809
 11
   1642523.39625
 21
   5311738.25662
 31
     -8005.84639
 12
   1642752.29056
 22
   5311809.20290
 32
     -7861.96848
 13
   1642752.29056
 23
   5311809.20290
 33
     -7861.96848
 62
5
 70
0
  0
3DFACE
  5
31A51
  8
default
 10
   1642836.98892
 20
   5311835.46330
 30
     -7808.79867
 11
   1642540.93639
 21
   5313877.94709
 31
     -8544.10809
 12
   1642752.29056
 22
   5311809.20290
 32
     -7861.96848
 13
   1642752.29056
 23
   5311809.20290
 33
     -7861.96848
 62
5
 70
0
  0
3DFACE
  5
31A52
  8
default
 10
   1642985.70605
 20
   5311848.84616
 30
     -7707.01551
 11
   1642540.93639
 21
   5313877.94709
 31
     -8544.10809
 12
   1642836.98892
 22
   5311835.46330
 32
     -7808.79867
 13
   1642836.98892
 23
   5311835.46330
 33
     -7808.79867
 62
5
 70
0
  0
POLYLINE
  5
31A53
  8
default
 62
5
 66
1
 70
9
  0
VERTEX
  5
31A54
  8
default
 10
   1642836.98892
 20
   5311835.46330
 30
     -7808.79867
 70
32
  0
VERTEX
  5
31A55
  8
default
 10
   1642985.70605
 20
   5311848.84616
 30
     -7707.01551
 70
32
  0
VERTEX
  5
31A56
  8
default
 10
   1643905.78036
 20
   5311931.40396
 30
     -7076.02363
 70
32
  0
VERTEX
  5
31A57
  8
default
 10
   1644291.25338
 20
   5311962.38272
 30
     -6810.72944
 70
32
  0
VERTEX
  5
31A58
  8
default
 10
   1644463.15939
 20
   5311976.15919
 30
     -6692.40847
 70
32
  0
VERTEX
  5
31A59
  8
default
 10
   1645070.24884
 20
   5312025.17351
 30
     -6276.55390
 70
32
  0
VERTEX
  5
31A5A
  8
default
 10
   1645624.34458
 20
   5312069.72634
 30
     -5895.99120
 70
32
  0
VERTEX
  5
31A5B
  8
default
 10
   1645944.03274
 20
   5312096.74365
 30
     -5676.76534
 70
32
  0
VERTEX
  5
31A5C
  8
default
 10
   1646795.58567
 20
   5312171.13456
 30
     -5093.44493
 70
32
  0
VERTEX
  5
31A5D
  8
default
 10
   1646804.15702
 20
   5312171.88020
 30
     -5087.55566
 70
32
  0
VERTEX
  5
31A5E
  8
default
 10
   1647019.42725
 20
   5312188.97825
 30
     -4939.22500
 70
32
  0
VERTEX
  5
31A5F
  8
default
 10
   1648029.65486
 20
   5312269.48680
 30
     -4244.61894
 70
32
  0
VERTEX
  5
31A60
  8
default
 10
   1648835.54336
 20
   5312330.87576
 30
     -3689.77856
 70
32
  0
VERTEX
  5
31A61
  8
default
 10
   1648921.73828
 20
   5312337.66251
 30
     -3630.49189
 70
32
  0
VERTEX
  5
31A62
  8
default
 10
   1649045.01595
 20
   5312347.37589
 30
     -3545.73701
 70
32
  0
VERTEX
  5
31A63
  8
default
 10
   1649207.58968
 20
   5312360.11678
 30
     -3433.58220
 70
32
  0
VERTEX
  5
31A64
  8
default
 10
   1649510.25164
 20
   5312383.90124
 30
     -3225.14648
 70
32
  0
VERTEX
  5
31A65
  8
default
 10
   1650489.34931
 20
   5312552.85246
 30
     -2574.56637
 70
32
  0
VERTEX
  5
31A66
  8
default
 10
   1650588.77540
 20
   5312564.25664
 30
     -2507.01905
 70
32
  0
VERTEX
  5
31A67
  8
default
 10
   1650789.56549
 20
   5312587.38306
 30
     -2371.07184
 70
32
  0
VERTEX
  5
31A68
  8
default
 10
   1650956.75274
 20
   5312632.12971
 30
     -2264.46361
 70
32
  0
VERTEX
  5
31A69
  8
default
 10
   1651715.11343
 20
   5312867.10253
 30
     -1789.15975
 70
32
  0
VERTEX
  5
31A6A
  8
default
 10
   1652283.86319
 20
   5313043.45690
 30
     -1433.29738
 70
32
  0
VERTEX
  5
31A6B
  8
default
 10
   1652383.98303
 20
   5313080.38788
 30
     -1372.16895
 70
32
  0
VERTEX
  5
31A6C
  8
default
 10
   1652545.81706
 20
   5313139.97514
 30
     -1272.81623
 70
32
  0
VERTEX
  5
31A6D
  8
default
 10
   1653011.91671
 20
   5313312.08760
 30
      -986.79708
 70
32
  0
VERTEX
  5
31A6E
  8
default
 10
   1653020.64828
 20
   5313315.30848
 30
      -981.43815
 70
32
  0
VERTEX
  5
31A6F
  8
default
 10
   1653607.17001
 20
   5313532.39172
 30
      -625.13608
 70
32
  0
VERTEX
  5
31A70
  8
default
 10
   1653737.13649
 20
   5313580.42419
 30
      -545.82712
 70
32
  0
VERTEX
  5
31A71
  8
default
 10
   1654272.51041
 20
   5313777.90248
 30
      -219.02898
 70
32
  0
VERTEX
  5
31A72
  8
default
 10
   1654392.96786
 20
   5313822.17804
 30
      -144.71241
 70
32
  0
VERTEX
  5
31A73
  8
default
 10
   1654622.90780
 20
   5313905.13248
 30
        -2.44908
 70
32
  0
VERTEX
  5
31A74
  8
default
 10
   1654762.96841
 20
   5314282.72836
 30
         0.23616
 70
32
  0
VERTEX
  5
31A75
  8
default
 10
   1655123.85803
 20
   5315269.70313
 30
         0.12621
 70
32
  0
VERTEX
  5
31A76
  8
default
 10
   1655484.66823
 20
   5316256.76757
 30
         0.15748
 70
32
  0
VERTEX
  5
31A77
  8
default
 10
   1655845.81416
 20
   5317243.45297
 30
        -0.40820
 70
32
  0
VERTEX
  5
31A78
  8
default
 10
   1656206.71222
 20
   5318230.41822
 30
        -0.53314
 70
32
  0
VERTEX
  5
31A79
  8
default
 10
   1656568.63387
 20
   5319216.22784
 30
        -2.47807
 70
32
  0
VERTEX
  5
31A7A
  8
default
 10
   1656929.80683
 20
   5320202.88273
 30
        -3.09181
 70
32
  0
VERTEX
  5
31A7B
  8
default
 10
   1657291.54238
 20
   5321188.90245
 30
        -4.70585
 70
32
  0
VERTEX
  5
31A7C
  8
default
 10
   1657653.28426
 20
   5322174.91503
 30
        -6.33115
 70
32
  0
VERTEX
  5
31A7D
  8
default
 10
   1658013.60205
 20
   5323162.53540
 30
        -5.42435
 70
32
  0
VERTEX
  5
31A7E
  8
default
 10
   1658375.27480
 20
   5324148.62602
 30
        -6.92673
 70
32
  0
VERTEX
  5
31A7F
  8
default
 10
   1658736.21163
 20
   5325135.54749
 30
        -7.12063
 70
32
  0
VERTEX
  5
31A80
  8
default
 10
   1659097.78692
 20
   5326121.74815
 30
        -8.44972
 70
32
  0
VERTEX
  5
31A81
  8
default
 10
   1659456.14839
 20
   5327111.57717
 30
        -4.06452
 70
32
  0
VERTEX
  5
31A82
  8
default
 10
   1659815.65415
 20
   5328100.11223
 30
        -1.72090
 70
32
  0
VERTEX
  5
31A83
  8
default
 10
   1660287.79494
 20
   5329010.36386
 30
         3.47374
 70
32
  0
VERTEX
  5
31A84
  8
default
 10
   1660867.00650
 20
   5329838.23373
 30
        -4.45911
 70
32
  0
VERTEX
  5
31A85
  8
default
 10
   1661458.91518
 20
   5330656.71072
 30
        -4.61315
 70
32
  0
VERTEX
  5
31A86
  8
default
 10
   1662051.12248
 20
   5331474.85056
 30
        -5.29814
 70
32
  0
VERTEX
  5
31A87
  8
default
 10
   1662641.21566
 20
   5332295.37724
 30
        -2.22414
 70
32
  0
VERTEX
  5
31A88
  8
default
 10
   1663233.38870
 20
   5333113.55576
 30
        -2.84823
 70
32
  0
VERTEX
  5
31A89
  8
default
 10
   1663825.50324
 20
   5333931.80034
 30
        -3.36828
 70
32
  0
VERTEX
  5
31A8A
  8
default
 10
   1664415.48262
 20
   5334752.45548
 30
        -0.09195
 70
32
  0
VERTEX
  5
31A8B
  8
default
 10
   1665007.45333
 20
   5335570.86244
 30
        -0.35627
 70
32
  0
VERTEX
  5
31A8C
  8
default
 10
   1665600.50154
 20
   5336388.05107
 30
        -2.54908
 70
32
  0
VERTEX
  5
31A8D
  8
default
 10
   1666193.48608
 20
   5337205.31591
 30
        -4.59887
 70
32
  0
VERTEX
  5
31A8E
  8
default
 10
   1666784.79312
 20
   5338024.46843
 30
        -3.70876
 70
32
  0
VERTEX
  5
31A8F
  8
default
 10
   1667383.00109
 20
   5338835.83664
 30
       -15.04210
 70
32
  0
VERTEX
  5
31A90
  8
default
 10
   1667551.58906
 20
   5339015.77655
 30
       -16.04628
 70
32
  0
VERTEX
  5
31A91
  8
default
 10
   1667228.54237
 20
   5339286.84491
 30
      -494.90797
 70
32
  0
VERTEX
  5
31A92
  8
default
 10
   1666848.11264
 20
   5339606.06336
 30
     -1069.61194
 70
32
  0
VERTEX
  5
31A93
  8
default
 10
   1666196.48794
 20
   5340152.84140
 30
     -2089.21578
 70
32
  0
VERTEX
  5
31A94
  8
default
 10
   1666129.00084
 20
   5340209.46980
 30
     -2177.49890
 70
32
  0
VERTEX
  5
31A95
  8
default
 10
   1665943.12296
 20
   5340365.43986
 30
     -2441.69029
 70
32
  0
VERTEX
  5
31A96
  8
default
 10
   1665115.50929
 20
   5341059.89019
 30
     -3780.03640
 70
32
  0
VERTEX
  5
31A97
  8
default
 10
   1665002.65577
 20
   5341154.58553
 30
     -3973.49024
 70
32
  0
VERTEX
  5
31A98
  8
default
 10
   1664673.84278
 20
   5341430.49239
 30
     -4537.14249
 70
32
  0
VERTEX
  5
31A99
  8
default
 10
   1664160.57237
 20
   5341861.17741
 30
     -5241.06025
 70
32
  0
VERTEX
  5
31A9A
  8
default
 10
   1663285.40187
 20
   5342595.53265
 30
     -6518.66775
 70
32
  0
VERTEX
  5
31A9B
  8
default
 10
   1663197.17626
 20
   5342669.56272
 30
     -6666.03083
 70
32
  0
VERTEX
  5
31A9C
  8
default
 10
   1663149.93866
 20
   5342709.19978
 30
     -6747.51008
 70
32
  0
VERTEX
  5
31A9D
  8
default
 10
   1662332.03758
 20
   5343395.50027
 30
     -8025.40821
 70
32
  0
VERTEX
  5
31A9E
  8
default
 10
   1661544.00128
 20
   5344056.74125
 30
     -9168.40311
 70
32
  0
VERTEX
  5
31A9F
  8
default
 10
   1661405.28910
 20
   5344173.13458
 30
     -9403.62277
 70
32
  0
VERTEX
  5
31AA0
  8
default
 10
   1661172.43355
 20
   5344368.52358
 30
     -9765.23063
 70
32
  0
VERTEX
  5
31AA1
  8
default
 10
   1661102.06305
 20
   5344427.57145
 30
     -9874.51094
 70
32
  0
VERTEX
  5
31AA2
  8
default
 10
   1660125.17095
 20
   5345247.28125
 30
    -11336.52337
 70
32
  0
VERTEX
  5
31AA3
  8
default
 10
   1659726.10360
 20
   5345582.13851
 30
    -11904.32836
 70
32
  0
VERTEX
  5
31AA4
  8
default
 10
   1659539.69088
 20
   5345738.55736
 30
    -12210.82952
 70
32
  0
VERTEX
  5
31AA5
  8
default
 10
   1659305.85584
 20
   5345934.76826
 30
    -12577.91292
 70
32
  0
VERTEX
  5
31AA6
  8
default
 10
   1658853.95680
 20
   5346313.95657
 30
    -13230.94487
 70
32
  0
VERTEX
  5
31AA7
  8
default
 10
   1658604.77103
 20
   5346523.04826
 30
    -13592.60927
 70
32
  0
VERTEX
  5
31AA8
  8
default
 10
   1657743.48663
 20
   5346245.92364
 30
    -13397.96756
 70
32
  0
VERTEX
  5
31AA9
  8
default
 10
   1656719.31899
 20
   5345918.56069
 30
    -13164.06707
 70
32
  0
VERTEX
  5
31AAA
  8
default
 10
   1655692.97635
 20
   5345593.64112
 30
    -12926.24184
 70
32
  0
VERTEX
  5
31AAB
  8
default
 10
   1654668.47126
 20
   5345266.66210
 30
    -12691.75542
 70
32
  0
VERTEX
  5
31AAC
  8
default
 10
   1653642.28067
 20
   5344941.58650
 30
    -12454.27456
 70
32
  0
VERTEX
  5
31AAD
  8
default
 10
   1653130.03148
 20
   5344778.09364
 30
    -12337.03938
 70
32
  0
VERTEX
  5
31AAE
  8
default
 10
   1652614.45105
 20
   5344618.36170
 30
    -12213.88112
 70
32
  0
VERTEX
  5
31AAF
  8
default
 10
   1652410.54253
 20
   5344552.74119
 30
    -12167.82020
 70
32
  0
VERTEX
  5
31AB0
  8
default
 10
   1651917.58975
 20
   5344367.01975
 30
    -12007.01199
 70
32
  0
VERTEX
  5
31AB1
  8
default
 10
   1651514.89448
 20
   5344079.39863
 30
    -12006.68498
 70
32
  0
VERTEX
  5
31AB2
  8
default
 10
   1650928.39571
 20
   5343254.81392
 30
    -12016.14997
 70
32
  0
VERTEX
  5
31AB3
  8
default
 10
   1650336.38660
 20
   5342436.45032
 30
    -12015.81737
 70
32
  0
VERTEX
  5
31AB4
  8
default
 10
   1649744.62074
 20
   5341617.81208
 30
    -12015.91728
 70
32
  0
VERTEX
  5
31AB5
  8
default
 10
   1649151.41925
 20
   5340800.79466
 30
    -12013.46459
 70
32
  0
VERTEX
  5
31AB6
  8
default
 10
   1648560.79820
 20
   5339980.86395
 30
    -12015.60001
 70
32
  0
VERTEX
  5
31AB7
  8
default
 10
   1647967.68591
 20
   5339163.74583
 30
    -12013.30590
 70
32
  0
VERTEX
  5
31AB8
  8
default
 10
   1647397.81342
 20
   5338323.90909
 30
    -12030.08884
 70
32
  0
VERTEX
  5
31AB9
  8
default
 10
   1646845.33094
 20
   5337470.65603
 30
    -12038.49278
 70
32
  0
VERTEX
  5
31ABA
  8
default
 10
   1646291.39780
 20
   5336627.13772
 30
    -12001.65083
 70
32
  0
VERTEX
  5
31ABB
  8
default
 10
   1645786.74201
 20
   5335737.61384
 30
    -12001.69112
 70
32
  0
VERTEX
  5
31ABC
  8
default
 10
   1645315.93985
 20
   5334824.99876
 30
    -12002.40233
 70
32
  0
VERTEX
  5
31ABD
  8
default
 10
   1644959.08117
 20
   5333834.27398
 30
    -12006.76468
 70
32
  0
VERTEX
  5
31ABE
  8
default
 10
   1644599.52508
 20
   5332846.46702
 30
    -12006.76003
 70
32
  0
VERTEX
  5
31ABF
  8
default
 10
   1644239.62717
 20
   5331858.37263
 30
    -12008.41337
 70
32
  0
VERTEX
  5
31AC0
  8
default
 10
   1643878.09106
 20
   5330872.12774
 30
    -12007.15394
 70
32
  0
VERTEX
  5
31AC1
  8
default
 10
   1643517.72918
 20
   5329884.55715
 30
    -12007.98234
 70
32
  0
VERTEX
  5
31AC2
  8
default
 10
   1643156.10365
 20
   5328898.41321
 30
    -12006.56393
 70
32
  0
VERTEX
  5
31AC3
  8
default
 10
   1642795.04433
 20
   5327911.63003
 30
    -12006.15224
 70
32
  0
VERTEX
  5
31AC4
  8
default
 10
   1642434.07644
 20
   5326924.74363
 30
    -12005.90312
 70
32
  0
VERTEX
  5
31AC5
  8
default
 10
   1642073.06965
 20
   5325937.90114
 30
    -12005.58484
 70
32
  0
VERTEX
  5
31AC6
  8
default
 10
   1641712.11200
 20
   5324951.00317
 30
    -12005.35394
 70
32
  0
VERTEX
  5
31AC7
  8
default
 10
   1641350.90322
 20
   5323964.38872
 30
    -12004.67653
 70
32
  0
VERTEX
  5
31AC8
  8
default
 10
   1640989.80154
 20
   5322977.65336
 30
    -12004.18953
 70
32
  0
VERTEX
  5
31AC9
  8
default
 10
   1640628.13745
 20
   5321991.55295
 30
    -12002.70255
 70
32
  0
VERTEX
  5
31ACA
  8
default
 10
   1640267.16101
 20
   5321004.67620
 30
    -12002.43823
 70
32
  0
VERTEX
  5
31ACB
  8
default
 10
   1639906.04588
 20
   5320017.95604
 30
    -12001.92731
 70
32
  0
VERTEX
  5
31ACC
  8
default
 10
   1639544.91896
 20
   5319031.24916
 30
    -12001.39545
 70
32
  0
VERTEX
  5
31ACD
  8
default
 10
   1639183.60117
 20
   5318044.75780
 30
    -12000.52420
 70
32
  0
VERTEX
  5
31ACE
  8
default
 10
   1638822.30882
 20
   5317058.23770
 30
    -11999.69818
 70
32
  0
VERTEX
  5
31ACF
  8
default
 10
   1638461.50701
 20
   5316071.16379
 30
    -11999.74437
 70
32
  0
VERTEX
  5
31AD0
  8
default
 10
   1638100.86560
 20
   5315083.90879
 30
    -12000.07576
 70
32
  0
VERTEX
  5
31AD1
  8
default
 10
   1637740.16968
 20
   5314096.71534
 30
    -12000.31021
 70
32
  0
VERTEX
  5
31AD2
  8
default
 10
   1637378.34296
 20
   5313110.79854
 30
    -11998.53407
 70
32
  0
VERTEX
  5
31AD3
  8
default
 10
   1637017.30231
 20
   5312123.99428
 30
    -11998.15558
 70
32
  0
VERTEX
  5
31AD4
  8
default
 10
   1636655.59894
 20
   5311137.93821
 30
    -11996.59877
 70
32
  0
VERTEX
  5
31AD5
  8
default
 10
   1636294.94805
 20
   5310150.69393
 30
    -11996.91328
 70
32
  0
VERTEX
  5
31AD6
  8
default
 10
   1636122.48447
 20
   5309654.51565
 30
    -11990.53177
 70
32
  0
VERTEX
  5
31AD7
  8
default
 10
   1636840.94788
 20
   5309791.38807
 30
    -11519.81793
 70
32
  0
VERTEX
  5
31AD8
  8
default
 10
   1637239.33317
 20
   5309922.18236
 30
    -11272.95347
 70
32
  0
VERTEX
  5
31AD9
  8
default
 10
   1637255.52495
 20
   5309927.49514
 30
    -11262.90194
 70
32
  0
VERTEX
  5
31ADA
  8
default
 10
   1637662.73331
 20
   5310045.51511
 30
    -11006.03220
 70
32
  0
VERTEX
  5
31ADB
  8
default
 10
   1637765.84576
 20
   5310075.48896
 30
    -10941.44580
 70
32
  0
VERTEX
  5
31ADC
  8
default
 10
   1638009.99437
 20
   5310146.03153
 30
    -10786.31389
 70
32
  0
VERTEX
  5
31ADD
  8
default
 10
   1638433.00939
 20
   5310268.39785
 30
    -10518.26673
 70
32
  0
VERTEX
  5
31ADE
  8
default
 10
   1638633.07588
 20
   5310339.48057
 30
    -10394.93379
 70
32
  0
VERTEX
  5
31ADF
  8
default
 10
   1638745.09325
 20
   5310398.44314
 30
    -10330.87155
 70
32
  0
VERTEX
  5
31AE0
  8
default
 10
   1639125.78928
 20
   5310586.08202
 30
    -10109.83234
 70
32
  0
VERTEX
  5
31AE1
  8
default
 10
   1639758.90143
 20
   5310898.28402
 30
     -9742.91157
 70
32
  0
VERTEX
  5
31AE2
  8
default
 10
   1640419.30062
 20
   5311224.03937
 30
     -9360.61206
 70
32
  0
VERTEX
  5
31AE3
  8
default
 10
   1640692.05660
 20
   5311359.52852
 30
     -9202.96176
 70
32
  0
VERTEX
  5
31AE4
  8
default
 10
   1640736.71303
 20
   5311382.69745
 30
     -9177.40687
 70
32
  0
VERTEX
  5
31AE5
  8
default
 10
   1641043.71620
 20
   5311435.97345
 30
     -8974.19648
 70
32
  0
VERTEX
  5
31AE6
  8
default
 10
   1642189.28023
 20
   5311634.63473
 30
     -8215.32234
 70
32
  0
VERTEX
  5
31AE7
  8
default
 10
   1642523.39625
 20
   5311738.25662
 30
     -8005.84639
 70
32
  0
VERTEX
  5
31AE8
  8
default
 10
   1642752.29056
 20
   5311809.20290
 30
     -7861.96848
 70
32
  0
VERTEX
  5
31AE9
  8
default
 10
   1642836.98892
 20
   5311835.46330
 30
     -7808.79867
 70
32
  0
SEQEND
  0
ENDSEC
  0
EOF
